<svg xmlns="http://www.w3.org/2000/svg" version="1.1" xmlns:xlink="http://www.w3.org/1999/xlink" xmlns:svgjs="http://svgjs.dev/svgjs" width="1000" height="1000" viewBox="0 0 1000 1000"><rect width="1000" height="1000" fill="#000000"></rect><g transform="matrix(0.7,0,0,0.7,149.57575757575756,282.1265587044535)"><svg viewBox="0 0 396 247" data-background-color="#ffffff" preserveAspectRatio="xMidYMid meet" height="623" width="1000" xmlns="http://www.w3.org/2000/svg" xmlns:xlink="http://www.w3.org/1999/xlink"><g id="tight-bounds" transform="matrix(1,0,0,1,0.2400000000000091,-0.09999999999999432)"><svg viewBox="0 0 395.52 247.2" height="247.2" width="395.52"><g><svg></svg></g><g><svg viewBox="0 0 395.52 247.2" height="247.2" width="395.52"><mask id="ff9d9bd6-c258-4fa9-bade-4ebd80f35a0a"><rect width="395.52" height="247.2" fill="white"></rect><g transform="matrix(1,0,0,1,0,65.1843345502821)" id="clone"><svg viewBox="0 0 395.52 116.83133089943577" height="116.83133089943577" width="395.52"><g><svg viewBox="0 0 395.52 116.83133089943577" height="116.83133089943577" width="395.52"><g><svg viewBox="0 0 395.52 116.83133089943577" height="116.83133089943577" width="395.52"><g><svg viewBox="0 0 395.52 116.83133089943577" height="116.83133089943577" width="395.52"><g id="SvgjsG1254"><svg viewBox="0 0 395.52 116.83133089943577" height="116.83133089943577" width="395.52" id="SvgjsSvg1253"><g><svg viewBox="0 0 395.52 116.83133089943577" height="116.83133089943577" width="395.52"><g transform="matrix(1,0,0,1,0,0)"><svg width="395.52" viewBox="-2.099999964237213 -32.5 151.63999938964844 45.5" height="116.83133089943577" data-palette-color="#152232"><path d="M24.3-29L25.9-29 13.4 0.5 0.9-29 2.5-29 13.4-3.35 24.3-29ZM43.75-14.55L43.75-14.55 50.55 0 48.9 0 41.9-15Q42-15.05 42.77-15.43 43.55-15.8 43.85-15.98 44.15-16.15 44.85-16.6 45.55-17.05 45.9-17.48 46.25-17.9 46.67-18.48 47.1-19.05 47.3-19.78 47.5-20.5 47.5-21.35L47.5-21.35Q47.5-24.5 44.5-26 41.5-27.5 37.05-27.5L37.05-27.5 33.05-27.5 33.05 0 31.55 0 31.55-29 37.05-29Q42.95-29 45.97-26.95 49-24.9 49-21.35L49-21.35Q49-19.05 47.45-17.28 45.9-15.5 43.75-14.55ZM71.94-27.48Q70.25-28 67.75-28 65.25-28 63.55-27.48 61.84-26.95 60.42-25.53 58.99-24.1 58.3-21.38 57.59-18.65 57.59-14.5 57.59-10.35 58.3-7.63 58.99-4.9 60.42-3.48 61.84-2.05 63.55-1.53 65.25-1 67.75-1 70.25-1 71.94-1.53 73.64-2.05 75.07-3.48 76.5-4.9 77.19-7.63 77.89-10.35 77.89-14.5 77.89-18.65 77.19-21.38 76.5-24.1 75.07-25.53 73.64-26.95 71.94-27.48ZM76.69-3.05Q74 0.5 67.75 0.5 61.49 0.5 58.8-3.05 56.09-6.6 56.09-14.5 56.09-22.4 58.8-25.95 61.49-29.5 67.75-29.5 74-29.5 76.69-25.95 79.39-22.4 79.39-14.5 79.39-6.6 76.69-3.05ZM101.64-19.5L99.29-19.5 105.94-25.05Q103.74-28 98.04-28L98.04-28Q95.54-28 93.84-27.48 92.14-26.95 90.72-25.53 89.29-24.1 88.59-21.38 87.89-18.65 87.89-14.5 87.89-10.35 88.59-7.63 89.29-4.9 90.72-3.48 92.14-2.05 93.84-1.53 95.54-1 98.04-1L98.04-1Q103.69-1 105.89-3.9L105.89-3.9 105.89-12.75 107.39-12.75 107.39 0.45Q107.39 10 98.64 10L98.64 10 92.79 10 92.79 8.5 98.64 8.5Q102.39 8.5 104.14 6.53 105.89 4.55 105.89-1L105.89-1 105.89-1.75Q103.19 0.5 98.04 0.5L98.04 0.5Q91.79 0.5 89.09-3.05 86.39-6.6 86.39-14.5 86.39-22.4 89.09-25.95 91.79-29.5 98.04-29.5L98.04-29.5Q105.29-29.5 107.89-24.75L107.89-24.75 101.64-19.5ZM116.14 0L116.14-29 117.64-29 117.64 0 116.14 0ZM128.59-3.05Q125.89-6.6 125.89-14.5 125.89-22.4 128.59-25.95 131.29-29.5 137.54-29.5 143.79-29.5 146.54-26.05L146.54-26.05 145.44-25.05Q143.24-28 137.54-28L137.54-28Q135.04-28 133.34-27.48 131.64-26.95 130.21-25.53 128.79-24.1 128.09-21.38 127.39-18.65 127.39-14.5 127.39-10.35 128.09-7.63 128.79-4.9 130.21-3.48 131.64-2.05 133.34-1.53 135.04-1 137.54-1L137.54-1Q143.24-1 145.44-3.95L145.44-3.95 146.54-2.95Q143.79 0.5 137.54 0.5 131.29 0.5 128.59-3.05Z" opacity="1" transform="matrix(1,0,0,1,0,0)" fill="black" class="wordmark-text-0" id="SvgjsPath1252" stroke-width="5" stroke="black" stroke-linejoin="round"></path></svg></g></svg></g></svg></g></svg></g></svg></g></svg></g></svg></g></mask><g mask="url(#ff9d9bd6-c258-4fa9-bade-4ebd80f35a0a)"><g><path xmlns="http://www.w3.org/2000/svg" d="M143.101 10.579v-10.579h144.582l-89.923 247.2-89.923-247.2h11.284l78.639 216.168 74.759-205.589z" fill="#ffffff" fill-rule="nonzero" stroke="none" stroke-width="1" stroke-linecap="butt" stroke-linejoin="miter" stroke-miterlimit="10" stroke-dasharray="" stroke-dashoffset="0" font-family="none" font-weight="none" font-size="none" text-anchor="none" style="mix-blend-mode: normal" data-fill-palette-color="tertiary"></path></g></g><g transform="matrix(1,0,0,1,0,65.1843345502821)"><svg viewBox="0 0 395.52 116.83133089943577" height="116.83133089943577" width="395.52"><g><svg viewBox="0 0 395.52 116.83133089943577" height="116.83133089943577" width="395.52"><g><svg viewBox="0 0 395.52 116.83133089943577" height="116.83133089943577" width="395.52"><g><svg viewBox="0 0 395.52 116.83133089943577" height="116.83133089943577" width="395.52"><g id="textblocktransform"><svg viewBox="0 0 395.52 116.83133089943577" height="116.83133089943577" width="395.52" id="textblock"><g><svg viewBox="0 0 395.52 116.83133089943577" height="116.83133089943577" width="395.52"><g transform="matrix(1,0,0,1,0,0)"><svg width="395.52" viewBox="-2.099999964237213 -32.5 151.63999938964844 45.5" height="116.83133089943577" data-palette-color="#152232"><path d="M24.3-29L25.9-29 13.4 0.5 0.9-29 2.5-29 13.4-3.35 24.3-29ZM43.75-14.55L43.75-14.55 50.55 0 48.9 0 41.9-15Q42-15.05 42.77-15.43 43.55-15.8 43.85-15.98 44.15-16.15 44.85-16.6 45.55-17.05 45.9-17.48 46.25-17.9 46.67-18.48 47.1-19.05 47.3-19.78 47.5-20.5 47.5-21.35L47.5-21.35Q47.5-24.5 44.5-26 41.5-27.5 37.05-27.5L37.05-27.5 33.05-27.5 33.05 0 31.55 0 31.55-29 37.05-29Q42.95-29 45.97-26.95 49-24.9 49-21.35L49-21.35Q49-19.05 47.45-17.28 45.9-15.5 43.75-14.55ZM71.94-27.48Q70.25-28 67.75-28 65.25-28 63.55-27.48 61.84-26.95 60.42-25.53 58.99-24.1 58.3-21.38 57.59-18.65 57.59-14.5 57.59-10.35 58.3-7.63 58.99-4.9 60.42-3.48 61.84-2.05 63.55-1.53 65.25-1 67.75-1 70.25-1 71.94-1.53 73.64-2.05 75.07-3.48 76.5-4.9 77.19-7.63 77.89-10.35 77.89-14.5 77.89-18.65 77.19-21.38 76.5-24.1 75.07-25.53 73.64-26.95 71.94-27.48ZM76.69-3.05Q74 0.5 67.75 0.5 61.49 0.5 58.8-3.05 56.09-6.6 56.09-14.5 56.09-22.4 58.8-25.95 61.49-29.5 67.75-29.5 74-29.5 76.69-25.95 79.39-22.4 79.39-14.5 79.39-6.6 76.69-3.05ZM101.64-19.5L99.29-19.5 105.94-25.05Q103.74-28 98.04-28L98.04-28Q95.54-28 93.84-27.48 92.14-26.95 90.72-25.53 89.29-24.1 88.59-21.38 87.89-18.65 87.89-14.5 87.89-10.35 88.59-7.63 89.29-4.9 90.72-3.48 92.14-2.05 93.84-1.53 95.54-1 98.04-1L98.04-1Q103.69-1 105.89-3.9L105.89-3.9 105.89-12.75 107.39-12.75 107.39 0.45Q107.39 10 98.64 10L98.64 10 92.79 10 92.79 8.5 98.64 8.5Q102.39 8.5 104.14 6.53 105.89 4.55 105.89-1L105.89-1 105.89-1.75Q103.19 0.5 98.04 0.5L98.04 0.5Q91.79 0.5 89.09-3.05 86.39-6.6 86.39-14.5 86.39-22.4 89.09-25.95 91.79-29.5 98.04-29.5L98.04-29.5Q105.29-29.5 107.89-24.75L107.89-24.75 101.64-19.5ZM116.14 0L116.14-29 117.64-29 117.64 0 116.14 0ZM128.59-3.05Q125.89-6.6 125.89-14.5 125.89-22.4 128.59-25.95 131.29-29.5 137.54-29.5 143.79-29.5 146.54-26.05L146.54-26.05 145.44-25.05Q143.24-28 137.54-28L137.54-28Q135.04-28 133.34-27.48 131.64-26.95 130.21-25.53 128.79-24.1 128.09-21.38 127.39-18.65 127.39-14.5 127.39-10.35 128.09-7.63 128.79-4.9 130.21-3.48 131.64-2.05 133.34-1.53 135.04-1 137.54-1L137.54-1Q143.24-1 145.44-3.95L145.44-3.95 146.54-2.95Q143.79 0.5 137.54 0.5 131.29 0.5 128.59-3.05Z" opacity="1" transform="matrix(1,0,0,1,0,0)" fill="#ffffff" class="wordmark-text-0" data-fill-palette-color="primary" id="text-0"></path></svg></g></svg></g></svg></g></svg></g></svg></g></svg></g></svg></g></svg></g><defs></defs></svg><rect width="395.52" height="247.2" fill="none" stroke="none" visibility="hidden"></rect></g></svg></g></svg>