<svg xmlns="http://www.w3.org/2000/svg" viewBox="0 0 136 136"><circle cx="68" cy="68" r="64" fill="#FBD303"/><path fill="#646C79" d="M12.1 15.5h99.3v20.8H12.1z"/><path fill="#FCFCFC" d="M12.1 36.3h99.3v69.2H12.1z"/><path fill="#E7E7E8" d="M57.7 43.9h8.1V52h-8.1zm12.9 0h8.1V52h-8.1z"/><path fill="#73D658" d="M83.4 43.9h8.1V52h-8.1z"/><path fill="#E7E7E8" d="M96.2 43.9h8.1V52h-8.1z"/><path fill="#F1582E" d="M19.2 59.8h8.1v8.1h-8.1z"/><path fill="#E7E7E8" d="M32.1 59.8h8.1v8.1h-8.1zm12.8 0H53v8.1h-8.1zm12.8 0h8.1v8.1h-8.1zm12.9 0h8.1v8.1h-8.1z"/><path fill="#73D658" d="M83.4 59.8h8.1v8.1h-8.1z"/><path fill="#E7E7E8" d="M96.2 59.8h8.1v8.1h-8.1z"/><path fill="#F1582E" d="M19.2 75.6h8.1v8.1h-8.1z"/><path fill="#E7E7E8" d="M32.1 75.6h8.1v8.1h-8.1zm12.8 0H53v8.1h-8.1zm12.8 0h8.1v8.1h-8.1zm12.9 0h8.1v8.1h-8.1z"/><path fill="#73D658" d="M83.4 75.6h8.1v8.1h-8.1z"/><path fill="#E7E7E8" d="M96.2 75.6h8.1v8.1h-8.1z"/><path fill="#F1582E" d="M19.2 91.5h8.1v8.1h-8.1z"/><path fill="#E7E7E8" d="M32.1 91.5h8.1v8.1h-8.1zm12.8 0H53v8.1h-8.1zm12.8 0h8.1v8.1h-8.1zm12.9 0h8.1v8.1h-8.1z"/><g fill="#FBD303"><circle cx="30.3" cy="25.2" r="3.7"/><circle cx="51.3" cy="25.2" r="3.7"/><circle cx="72.3" cy="25.2" r="3.7"/><circle cx="93.2" cy="25.2" r="3.7"/></g><path fill="#F1582E" d="M125.9 94.9c0 16.3-13.3 29.6-29.6 29.6s-29.6-13.3-29.6-29.6S80 65.3 96.3 65.3s29.6 13.2 29.6 29.6z"/><circle cx="96.3" cy="94.9" r="2.8" fill="#3EB9E3"/><path fill="#FFF" d="M96.3 120.5c-14.1 0-25.6-11.5-25.6-25.6s11.5-25.6 25.6-25.6 25.6 11.5 25.6 25.6-11.5 25.6-25.6 25.6z"/><path fill="#E7E7E8" d="M96.3 120.5c-14.1 0-25.6-11.5-25.6-25.6 0-14.1 11.5-25.6 25.6-25.6 14.1 0 25.6 11.5 25.6 25.6 0 14.1-11.5 25.6-25.6 25.6z"/><path fill="#646B79" d="M95.7 71.2h1v2.2h-1zm0 45.2h1v2.2h-1zM83.92 74.624l.866-.5 1.1 1.906-.866.5zm22.705 39.151.866-.5 1.1 1.905-.866.5zM75.5 83.459l.5-.866 1.906 1.1-.5.866zm39.122 22.663.5-.866 1.906 1.1-.5.866zM72.6 94.4h2.2v1h-2.2zm45.2 0h2.2v1h-2.2zm-41.83 12.759-.5-.866 1.905-1.1.5.866zm39.208-22.561-.5-.866 1.906-1.1.5.866zm-30.273 31.081-.866-.5 1.1-1.905.866.5zm22.519-39.18-.866-.5 1.1-1.905.866.5zM112.2 94.7 96.7 94l-3.3.2v1.4l3.3.2 15.5-.7z"/><path fill="#646B79" d="m96 79-.6 15.5.1 3.3H97l.1-3.3-.6-15.5z"/><path fill="#F0582F" d="M83.5 107.7c-.2-.2-.2-.6 0-.8l14.6-14.6c.2-.2.6-.2.8 0s.2.6 0 .8l-14.6 14.6c-.2.2-.6.2-.8 0z"/><circle cx="96.3" cy="94.9" r="1.6" fill="#F0582F"/></svg>