<svg xmlns="http://www.w3.org/2000/svg" data-name="Layer 1" viewBox="0 0 65 65"><path fill="#fe9526" d="M50.73 9.97h2.55a2.39 2.39 0 0 1 2.39 2.39v48.42a2.39 2.39 0 0 1-2.39 2.39H11.72a2.39 2.39 0 0 1-2.39-2.39V12.36a2.39 2.39 0 0 1 2.39-2.39h39.01Z" class="color4bcffa svgShape"/><path fill="#167ffc" d="M32.5 9.97v53.2h20.78a2.39 2.39 0 0 0 2.39-2.39V12.36a2.39 2.39 0 0 0-2.39-2.39H32.5Z" class="color0fbcf9 svgShape"/><path fill="#f5faf6" class="colorf5f6fa svgShape" d="M15.09 16.32h34.82v40.5H15.09z"/><path fill="#373747" class="color374047 svgShape" d="M21.33 31.43h4.88v5.1h-4.88zM21.33 40.09h4.88v5.1h-4.88zM21.33 49.19h4.88v5.1h-4.88z"/><path fill="#53d86a" class="colordcdde1 svgShape" d="M32.5 16.32h17.41v40.5H32.5z"/><path fill="#373747" d="M43.64 26.65H30.41c-.55 0-1-.45-1-1s.45-1 1-1h13.23c.55 0 1 .45 1 1s-.45 1-1 1zm0 8.37H30.41c-.55 0-1-.45-1-1s.45-1 1-1h13.23c.55 0 1 .45 1 1s-.45 1-1 1zm-.79 8.41H29.62c-.55 0-1-.45-1-1s.45-1 1-1h13.23c.55 0 1 .45 1 1s-.45 1-1 1zm.84 9.42H30.46c-.55 0-1-.45-1-1s.45-1 1-1h13.23c.55 0 1 .45 1 1s-.45 1-1 1z" class="color374047 svgShape"/><path fill="#595bd4" class="color485460 svgShape" d="M21.33 22.46h4.88v5.1h-4.88z"/><path fill="#373747" class="color374047 svgShape" d="M23.77 22.46h2.44v5.1h-2.44z"/><path fill="#595bd4" class="color485460 svgShape" d="M21.33 31.38h4.88v5.1h-4.88z"/><path fill="#373747" class="color374047 svgShape" d="M23.77 31.38h2.44v5.1h-2.44z"/><path fill="#595bd4" class="color485460 svgShape" d="M21.33 39.98h4.88v5.1h-4.88z"/><path fill="#373747" class="color374047 svgShape" d="M23.77 39.98h2.44v5.1h-2.44z"/><g class="color000000 svgShape"><path fill="#595bd4" class="color485460 svgShape" d="M21.33 49.14h4.88v5.1h-4.88z"/><path fill="#373747" class="color374047 svgShape" d="M23.77 49.14h2.44v5.1h-2.44z"/></g><path fill="#373747" d="M44.31 6.04v6.89H20.7V6.04c0-.75.61-1.36 1.36-1.36h6.91c.36-1.63 1.8-2.84 3.53-2.84s3.18 1.21 3.54 2.84h6.91c.75 0 1.36.61 1.36 1.36Z" class="color374047 svgShape"/></svg>