<svg xmlns="http://www.w3.org/2000/svg" viewBox="0 0 500 500"><path fill="#fe9526" d="M192.71,261.4c0-.15-.05-.3-.09-.44ZM424.25,45.62c13.17,9.57,12.7,31.92,12,46.62-.79,23-1.11,45.91-.23,68.87-.24,11.55.44,23.83-4.47,34.56-3.73,6.9-8.29,14-14.93,18.37C397,225.09,375.42,232.41,354.18,240a502.33,502.33,0,0,1-49,13.18c-19.35,5.67-38.58,12.24-58.71,14.56-10.34,1.16-20.77,1.72-30.92,4.19-8.32,1.92-17,5.71-25.61,3.78-3.16-1.15-5.37-3.19-6-5.42-4.06-1.52-6.11-6.15-7.58-10.15-3.42-8.15-7.24-17.86-10.35-25.49-7.69-17.69-13.65-36-19.93-54.24-7.2-20.41-14.93-40.71-20.81-61.53-2-10.37,3.82-14.62,9.38-14.93a11.08,11.08,0,0,1,5.16-2.67L146,99.67l13.65-3.4,26.63-6.65,53.63-13.39,54.87-13.7L349.07,49l13.37-3.34,6.05-1.51A11.47,11.47,0,0,1,371,42.8C388.72,37.85,408.16,33.94,424.25,45.62Z" class="colorfe8329 svgShape"/><path fill="#167ffc" d="M211 307.85c1 12.5-14.48 33.83-28 31.34-5.53-1.17-9.23-5.92-11.81-10.64-6.14-2.93-5.91-10.78-8.44-16.28-1.78-5.16-3.51-10.34-5.25-15.51-9.74-26.89-20.91-53.23-29.67-80.46-8.17-25-16.23-50-25.76-74.55-4.42-10.88-8.62-22-15.25-31.73-4.07-6.1-8.34-7.91-15.43-8.93a70 70 0 00-13.1-.6c-6.49 1.06-13.73 2.84-19.54-1.32-7.47-5.71-9.95-16.45-8.4-25.38C32 66.34 37.51 60.56 44 56.91c7.57-5.55 16.73-7.66 25.85-9.06C80 45.6 91.34 45.35 100.07 52 106.5 57 111 64 115.9 70.43c11 15.44 19.23 32.67 26.36 50.17q14.73 36 27 72.94c7.72 21.46 16.44 42.67 23.48 64 3 9.6 6.45 20.22 11.15 28.83C207.31 293 210.55 300.22 211 307.85zM388.51 313.77a7.84 7.84 0 01.67 5c-1.9 7.41-10.95 8.64-17.23 10.5-9.1 2.47-18.42 4-27.47 6.63-16.15 4.78-32.93 6.77-49.57 8.95-11.16 1.15-22.07 5.31-33.38 4.22-15.1-1.22-30.14-20.55-18.61-33.92 5.14-6.54 26.88-11.76 33.92-7.66 25.16-5.86 50.54-10.71 76-15.05 5.47-1.26 11.06-1.78 16.52-3.07 6.78-3.28 12.28 1 13.68 7.86C384.82 302.72 386.59 308.27 388.51 313.77z" class="colord96308 svgShape"/><path fill="#595bd4" d="M273.87 331.61a55.52 55.52 0 01-44.8 65.17 61.05 61.05 0 01-9.92.87 46.08 46.08 0 01-4.7-.23 55.74 55.74 0 01-27.31-10.11 56 56 0 01-10.69-10 55.62 55.62 0 01-11.8-25.88 58.5 58.5 0 01-.53-14.66 55.6 55.6 0 0120-37.5 56 56 0 0120.57-10.67 49.93 49.93 0 018.85-1.69c.88-.12 1.79-.16 2.66-.22a58.13 58.13 0 017.23.06 53.13 53.13 0 0113.37 2.66 55.5 55.5 0 0137.11 42.19zM464.4 298.17a50.32 50.32 0 01-1 14.74 52.18 52.18 0 01-4.75 13.56 53.6 53.6 0 01-34.33 27.45 54.76 54.76 0 01-7.53 1.36 68 68 0 01-7 .29h-.67a45.64 45.64 0 01-7.46-.81 64.5 64.5 0 01-7.22-1.79 44.53 44.53 0 01-7.16-2.94 47.13 47.13 0 01-6.44-3.77 53.47 53.47 0 01-11.12-10.17 56.53 56.53 0 01-8.09-13.47 53 53 0 01-3.38-29.18 55.72 55.72 0 014.49-14.32A56.38 56.38 0 01371 266.65 53.58 53.58 0 01382.42 257a51.14 51.14 0 016.34-3.45c1.09-.52 2.21-1 3.34-1.4a20.33 20.33 0 014.56-1.32 9.3 9.3 0 013.09.16c.39-.27.8-.51 1.19-.74 2.47-1.38 5.5-1.43 8.26-1.53a49.3 49.3 0 017 .21 55.6 55.6 0 0114.42 3.46 51.78 51.78 0 0113.33 7.59 65.21 65.21 0 015.6 5 56.63 56.63 0 014.69 5.57 49.42 49.42 0 016.86 12.68A57.59 57.59 0 01464.4 298.17z" class="color0d2396 svgShape"/><path fill="#fe9b32" d="M469.69,113.6c4.49,36.63-38.13,56.82-69.33,47.51-39-10.61-54.18-52.61-71.32-84.9C301.82,28.53,272.19,15.69,224.2,47.36a95.66,95.66,0,0,0-21.26,24.15c-3.78,4.62-2.26,14.87-10.3,14.6-11.61-4.23-.72-24.48,4.53-30.62,21-29.65,61.05-46.92,96-33.1,18.87,7.07,35.77,19.72,46,37.28,11.63,19.59,14.3,44.45,31.77,60.43,15.48,14.09,35.57,24.63,56.65,26.33,18.13,2,40.73-12.22,32.26-32.34-2.27-3.86-6.17-6.42-10-8.55-7.23-4.19-9.42,5-15.95,3.51-4.16-1.63-4.92-7.18-3.44-10.92,2.1-4.71,10.09-9.09,15.07-9C458,89.91,468,101.65,469.69,113.6Z" class="colorfed732 svgShape"/><path fill="#fed8af" d="M286.46,377.53c21.15-37.08,73.19-21.86,53.44-1.2-4.14,2.58-8-1.82-12.29-1.89-14.85-.92-27.81,8.69-36.13,20.24-19.5,24.92-44.3,55.75-79.35,52.94-24.38-1.61-38.93-17.81-50.86-37.48-6-10,3.2-21.38,9.24-11.65,8.51,12.84,18,27.57,33.72,31.88a59.9,59.9,0,0,0,57.55-16.78C272.38,403.45,279,390,286.46,377.53Z" class="colorfeafd0 svgShape"/><path fill="#fed8af" d="M282.58,443.84c7.38,1.07,10.52,15.79.8,14.85-29.79-8.46-40.28,26.37-82.76,23.6-28-1.92-66.06-17.38-83.4-40-13.92-19.17-23.82-49-21.46-72.73a25.33,25.33,0,0,1,1.9-8.32,7.33,7.33,0,0,1,12.93-1c2.35,3.06,3,8.4-.59,10.86-2.81,22.41,4,44.5,15.82,63.33,17.55,28.19,54.64,35.58,85.26,28.44,20.06-4.13,36.61-19.34,57.36-20.47A47.85,47.85,0,0,1,282.58,443.84Z" class="colorfeafd0 svgShape"/><path fill="#53d86a" d="M327.31,173.05a26.32,26.32,0,0,1,.91,11.61,35.47,35.47,0,0,1-3.57,11.41,33.45,33.45,0,0,1-7.12,9.47,24.8,24.8,0,0,1-9.4,5.66l0,.27c.21,1.91.44,3.82.63,5.73a12.57,12.57,0,0,1-2.09,8.42,8.4,8.4,0,0,1-4.39,3.38,6.62,6.62,0,0,1-2.7.28,9.33,9.33,0,0,1-6.16-3.81,14.29,14.29,0,0,1-2.13-4.19,15.67,15.67,0,0,1-.49-2.95c-.17-1.57-.34-3.12-.52-4.68a59.14,59.14,0,0,1-6.42-.54,47,47,0,0,1-22-8.76l-.2.07q-4.77-5.08-3.23-10a9.68,9.68,0,0,1,6.89-6.56,15,15,0,0,1,8.47.29,42.27,42.27,0,0,0,13.35,6.47,17.42,17.42,0,0,0,13.42-1.24,14.45,14.45,0,0,0,4.73-4.08,11.87,11.87,0,0,0,2.24-5.12,11.48,11.48,0,0,0-.4-5.31,9.45,9.45,0,0,0-3-4.5,18.34,18.34,0,0,0-5.44-3.28,17.22,17.22,0,0,0-5.31-1.06,35.67,35.67,0,0,0-4.93.18,31.38,31.38,0,0,1-4.34.23q-3.35.14-6.74.18a38.78,38.78,0,0,1-6.72-.51,30.92,30.92,0,0,1-13.56-5.73,25.91,25.91,0,0,1-5.61-5.6,21.87,21.87,0,0,1-3.33-6.32,27,27,0,0,1-1.12-9.39,35.11,35.11,0,0,1,1.82-9.74,31.61,31.61,0,0,1,4.55-8.66,23.55,23.55,0,0,1,6.95-6.36,42.67,42.67,0,0,1,7.51-3.72,19.8,19.8,0,0,1-.38-2.92c-.32-2.66-.91-5.37-.2-8,3.2-12.18,16.27-8.65,17.61,2.41.2,1.82.53,3.64.72,5.46a52.88,52.88,0,0,1,11.22,1,17,17,0,0,1,5.68,3,8.49,8.49,0,0,1,2.8,3.88,8.07,8.07,0,0,1,.05,4.86,11.09,11.09,0,0,1-2.51,4.29,10.19,10.19,0,0,1-4.57,2.78,12.93,12.93,0,0,1-6.39.19,37.5,37.5,0,0,0-7.66-.21,28.62,28.62,0,0,0-9,1.91,12.7,12.7,0,0,0-6.35,5q-2.12,3.38.3,9a14.79,14.79,0,0,0,4.19,2.89,18,18,0,0,0,4.73,1.35,32.42,32.42,0,0,0,5.18.31c1.81,0,3.53-.09,5.17-.15a99.49,99.49,0,0,1,13.08.56,36.91,36.91,0,0,1,11.12,3,25.55,25.55,0,0,1,8.73,6.55A31.31,31.31,0,0,1,327.31,173.05Z" class="colorffffff svgShape"/></svg>