<svg id="eOtyS7AEW9X1" xmlns="http://www.w3.org/2000/svg" xmlns:xlink="http://www.w3.org/1999/xlink" viewBox="0 0 75 75" shape-rendering="geometricPrecision" text-rendering="geometricPrecision" project-id="af23f92be76a43d39942458f94e083ef" export-id="c15a2861ef4d455e86f72b987468f4a7" cached="false"><path d="M69.277,68.958c-.676.338,2.593.235-24.13.235-.573,0-.953-.303-.816-1.169.037-.292.164-4.029.942-6.997.375-1.417.789-2.431,2.988-3.114c1.687-.494,3.475-.918,5.084-1.64.14-.07.266-.102.392-.133c7.908.174,6.501.072,7.256.314c2.816.994,6.05,1.352,7.256,3.404.892,1.541.968,3.203,1.044,4.895.04.98.159,2.34.204,3.436.015.275-.016.565-.22.769Z" fill="#167ffc"/><path d="M57.734,57.34c-.014.124-.208.207-.305.249-.973.61-1.972,1.105-2.535,2.23-.06.1-.053.204-.139.291-.055.056-.083.014-.125-.069-.413-.918-1.092-2.583-1.247-3.547l-.041-.222c.138-.055.263-.097.388-.138l2.3.055c.602.503.937.54,1.58.998.055.041.124.083.124.152v.001Z" fill="#e17f17"/><path d="M60.99,56.453c-.052.05-.088.984-1.26,3.588-.043.083-.07.125-.125.07-.083-.08-.082-.197-.14-.292-.563-1.126-1.595-1.641-2.535-2.23-.096-.042-.29-.125-.305-.25c0-.218,1.12-.644,1.635-1.108l2.245.055c.125.042.291.097.485.167ZM59.8,69.196c-.092-.375-1.828-9.844-1.846-9.944-.29-.058-.437.581-.681.581-.44,0-.72.093-1.198.093l-.15-.186c-.157.936-1.34,7.637-1.361,7.743-.177,1.235-.143.605-.335,1.713h5.57.001Z" fill="#e17f17"/><path d="M59.331,69.196c-1.012-7.029.338,2.163-1.384-9.49-.872-.221-1.023.011-1.918.011l-.988,7.569c-.179.87-.24,1.367-.312,1.91h4.602Z" fill="#6e70cf"/><path d="M59.937,55.607c-.887.638-1.815.984-2.771,1.538-.887-.706-1.732-1.108-2.619-1.815.045-1.292.02-1.258.028-2.175c1.833.886,3.62,1.305,5.307,0-.019.614-.023.249-.084,2.258.07.084.084.111.139.194Z" fill="#f7c28a"/><path d="M55.746,57.308c3.328,0,3.13-.028,3.19.038.08.086-.011.227-.048.313l-.884,2.06c-.118.274-.14.218-1.472.239-.201.003-.368.044-.53-.1-.102-.09-.066-.056-.781-2.073-.03-.085-.082-.18-.095-.27-.041-.262.394-.207.62-.207Z" fill="#595bd4"/><path d="M59.57,59.48c-.085-.144-.006-.123-.324-.583-.677-.98-2.103-1.463-2.127-1.678-.023-.201,1.014-.495,2.079-1.51.129-.123.259-.255.427-.32.357-.137.932.027,1.125.565.216.599-.761,2.894-1.041,3.51-.046.1-.079.115-.138.016h-.001Z" fill="#f39736"/><path d="M54.807,59.405c.037-.062.053-.134.087-.198.53-.97,1.161-1.269,2.116-1.852.073-.045.237-.11.249-.21.023-.201-1.015-.496-2.08-1.51-.128-.124-.258-.255-.427-.32-.428-.165-.95.119-1.124.526-.243.569.784,2.983,1.04,3.548.046.1.08.116.139.016Z" fill="#f39736"/><path d="M59.882,53.196c-.008.12-.03.787-.042.846-1.608,1.378-3.728,1.347-5.265.055v-.914c1.883,1.098,3.628,1.536,5.307.013Z" fill="#eaaf71"/><path d="M61.8,50.582c-.156.286-.361.548-.554.821-.597.833-1.1,1.766-1.914,2.387-1.516058,1.152375-3.670918.90545-4.887-.56-.188072-.234712-.360447-.481582-.516-.739-1.27-2.015-1.578-2.427-1.766-2.993-.17-.516-.243-1.124-.244-1.666-.004-3.13,6.997-3.34,7.578-3.322c2.234.069,3.003,1.378,3.058,3.13.032,1.052-.416,1.938-.755,2.942Z" fill="#f7c28a"/><path d="M52.233,50.543c-.171.03-.32-.502-.363-.603-3.458-8.031,4.025-12.242,7.83-9.353.095.073.191.197.321.19.14-.01.254-.112.383-.158.54-.194,1.138-.03,1.62.298.69.47,1.096,1.26,1.342,2.06.561,1.822.23,2.286-1.268,6.953-.033.105-.077.434-.17.498-.25.171.093-.29-.08-3.394-.022-.38-.112-.838-.472-.962-.07.048-.252.256-.349.182-.065-.05-.034-.22-.03-.289.004-.062.005-.596.04-.608-.54.203-1.15.279-1.722.22-.438-.047.156-.41.272-.511.424-.371.442-.484.51-.497-1.064.198-2.11.499-3.117.898-.11.043-.303.178-.418.179-.182,0-.109-.158-.039-.246.125-.158.257-.311.385-.467-1.005611.234858-1.982446.579249-2.913,1.027-1.002.482-1.199.844-1.411,1.943-.224,1.158-.09,2.592-.351,2.64Z" fill="#c28a4f"/><path d="M69.277,68.958c-.676.338,2.593.235-24.13.235-.573,0-.953-.303-.816-1.169.037-.292.164-4.029.942-6.997.375-1.417.789-2.431,2.988-3.114c1.687-.494,3.475-.918,5.084-1.64.14-.07.266-.102.392-.133c7.908.174,6.501.072,7.256.314c2.816.994,6.05,1.352,7.256,3.404.892,1.541.968,3.203,1.044,4.895.04.98.159,2.34.204,3.436.015.275-.016.565-.22.769Z" fill="#167ffc"/><path d="M57.734,57.34c-.014.124-.208.207-.305.249-.973.61-1.972,1.105-2.535,2.23-.06.1-.053.204-.139.291-.055.056-.083.014-.125-.069-.413-.918-1.092-2.583-1.247-3.547l-.041-.222c.138-.055.263-.097.388-.138l2.3.055c.602.503.937.54,1.58.998.055.041.124.083.124.152v.001Z" fill="#e17f17"/><path d="M60.99,56.453c-.052.05-.088.984-1.26,3.588-.043.083-.07.125-.125.07-.083-.08-.082-.197-.14-.292-.563-1.126-1.595-1.641-2.535-2.23-.096-.042-.29-.125-.305-.25c0-.218,1.12-.644,1.635-1.108l2.245.055c.125.042.291.097.485.167ZM59.8,69.196c-.092-.375-1.828-9.844-1.846-9.944-.29-.058-.437.581-.681.581-.44,0-.72.093-1.198.093l-.15-.186c-.157.936-1.34,7.637-1.361,7.743-.177,1.235-.143.605-.335,1.713h5.57.001Z" fill="#e17f17"/><path d="M59.331,69.196c-1.012-7.029.338,2.163-1.384-9.49-.872-.221-1.023.011-1.918.011l-.988,7.569c-.179.87-.24,1.367-.312,1.91h4.602Z" fill="#6e70cf"/><path d="M59.937,55.607c-.887.638-1.815.984-2.771,1.538-.887-.706-1.732-1.108-2.619-1.815.045-1.292.02-1.258.028-2.175c1.833.886,3.62,1.305,5.307,0-.019.614-.023.249-.084,2.258.07.084.084.111.139.194Z" fill="#f7c28a"/><path d="M55.746,57.308c3.328,0,3.13-.028,3.19.038.08.086-.011.227-.048.313l-.884,2.06c-.118.274-.14.218-1.472.239-.201.003-.368.044-.53-.1-.102-.09-.066-.056-.781-2.073-.03-.085-.082-.18-.095-.27-.041-.262.394-.207.62-.207Z" fill="#595bd4"/><path d="M59.57,59.48c-.085-.144-.006-.123-.324-.583-.677-.98-2.103-1.463-2.127-1.678-.023-.201,1.014-.495,2.079-1.51.129-.123.259-.255.427-.32.357-.137.932.027,1.125.565.216.599-.761,2.894-1.041,3.51-.046.1-.079.115-.138.016h-.001Z" fill="#f39736"/><path d="M54.807,59.405c.037-.062.053-.134.087-.198.53-.97,1.161-1.269,2.116-1.852.073-.045.237-.11.249-.21.023-.201-1.015-.496-2.08-1.51-.128-.124-.258-.255-.427-.32-.428-.165-.95.119-1.124.526-.243.569.784,2.983,1.04,3.548.046.1.08.116.139.016Z" fill="#f39736"/><path d="M59.882,53.196c-.008.12-.03.787-.042.846-1.608,1.378-3.728,1.347-5.265.055v-.914c1.883,1.098,3.628,1.536,5.307.013Z" fill="#eaaf71"/><path d="M61.8,50.582c-.156.286-.361.548-.554.821-.597.833-1.1,1.766-1.914,2.387-1.516058,1.152375-3.670918.90545-4.887-.56-.188072-.234712-.360447-.481582-.516-.739-1.27-2.015-1.578-2.427-1.766-2.993-.17-.516-.243-1.124-.244-1.666-.004-3.13,6.997-3.34,7.578-3.322c2.234.069,3.003,1.378,3.058,3.13.032,1.052-.416,1.938-.755,2.942Z" fill="#f7c28a"/><path d="M52.233,50.543c-.171.03-.32-.502-.363-.603-3.458-8.031,4.025-12.242,7.83-9.353.095.073.191.197.321.19.14-.01.254-.112.383-.158.54-.194,1.138-.03,1.62.298.69.47,1.096,1.26,1.342,2.06.561,1.822.23,2.286-1.268,6.953-.033.105-.077.434-.17.498-.25.171.093-.29-.08-3.394-.022-.38-.112-.838-.472-.962-.07.048-.252.256-.349.182-.065-.05-.034-.22-.03-.289.004-.062.005-.596.04-.608-.54.203-1.15.279-1.722.22-.438-.047.156-.41.272-.511.424-.371.442-.484.51-.497-1.064.198-2.11.499-3.117.898-.11.043-.303.178-.418.179-.182,0-.109-.158-.039-.246.125-.158.257-.311.385-.467-1.005611.234858-1.982446.579249-2.913,1.027-1.002.482-1.199.844-1.411,1.943-.224,1.158-.09,2.592-.351,2.64Z" fill="#c28a4f"/><g><path d="M31.237,68.163c.013.28-.019.578-.224.789-.314.314-.89.242-1.292.242h-23.331c-.317,0-.585-.1-.771-.385-.193-.298-.106-.503-.062-.814.07-.479.157-4.035.97-7.129.39-1.52.85-2.496,3.044-3.181c1.722-.51,3.549-.933,5.184-1.672.143-.069.273-.106.403-.143l6.905.155c.13.037.292.106.497.168c5.206,1.865,8.094,1.259,8.421,7.65.007.102.232,3.847.255,4.32h.001Z" fill="#fdbd7a"/><path d="M19.235,57.1c-.014.126-.212.211-.31.254-.993.622-2.013,1.127-2.587,2.275-.06.1-.054.208-.142.297-.056.057-.084.014-.127-.07-.422-.937-1.115-2.636-1.272-3.62l-.042-.225c.14-.057.268-.1.395-.142l2.347.057c.615.513.956.55,1.61,1.018.058.042.128.084.128.155v.001Z" fill="#faa041"/><path d="M22.557,56.195c-.014.014-.014.028-.014.042-.152.953-.821,2.616-1.272,3.618-.043.085-.071.128-.127.071-.112-.108-.068-.298-.439-.763-.565-.834-1.456-1.286-2.29-1.81-.098-.042-.296-.127-.31-.254c0-.214,1.168-.68,1.667-1.13l2.29.056c.127.042.297.099.495.17Zm-1.214,13c-.148-.599-1.498-8.157-1.883-10.145-.297-.059-.446.594-.695.594-.448,0-.735.094-1.222.094l-.154-.19c-.017.103-1.49,8.581-1.518,8.682-.087.315-.155.639-.212.964h5.684v.001Z" fill="#faa041"/><path d="M20.865,69.194c-1.033-7.17.344,2.207-1.412-9.681-.89-.225-1.044.012-1.957.012l-1.008,7.72c-.182.889-.246,1.395-.318,1.95h4.695v-.001Z" fill="#878796"/><path d="M21.482,55.332c-.904.65-1.85,1.004-2.826,1.57-.905-.722-1.767-1.131-2.672-1.852.046-1.318.021-1.284.029-2.22.847.41,1.724.764,2.67.834.948.057,1.994-.254,2.743-.833-.006.165-.034.639-.085,2.303.071.085.085.113.141.198Z" fill="#f7c28a"/><path d="M17.207,57.067c3.395,0,3.193-.028,3.255.04.082.087-.012.23-.05.319l-.902,2.101c-.079.185-.163.223-.355.226-1.533.023-1.523.06-1.688-.084-.085-.075-.106-.17-.143-.275-.848-2.392-.74-2.059-.75-2.115-.041-.268.402-.212.633-.212Z" fill="#707083"/><path d="M21.11,59.283c-.089-.147-.008-.125-.332-.594-.69-1-2.145-1.493-2.17-1.712-.024-.21,1.006-.48,2.12-1.541.132-.126.265-.26.437-.326.364-.14.95.027,1.147.576.221.612-.795,2.991-1.062,3.58-.036.08-.08.118-.14.017Z" fill="#f89c3b"/><path d="M16.249,59.207c.088-.147.007-.125.331-.594.691-1,2.145-1.493,2.17-1.712.024-.206-1.034-.506-2.12-1.541-.132-.126-.264-.26-.437-.326-.436-.168-.97.121-1.147.536-.25.587.797,3.035,1.062,3.62.037.08.08.118.141.017Z" fill="#f89c3b"/><path d="M21.426,52.873c-.008.123-.03.802-.042.862-1.64,1.406-3.804,1.375-5.371.057v-.933c.847.494,1.724.918,2.67,1.003.948.071,1.98-.297,2.743-.99v.001Z" fill="#eaaf71"/><path d="M23.383,50.206c-.159.292-.368.558-.565.837-.609.85-1.122,1.801-1.953,2.436-1.546505,1.175159-3.744278.923418-4.985-.571-.196-.235-.361-.495-.526-.755-1.296-2.056-1.61-2.475-1.801-3.053-.175-.527-.25-1.147-.25-1.7-.003-2.473,1.482-2.629,4.835-3.063.965-.125,1.923-.356,2.895-.326s1.997.372,2.564,1.162c.416.579.534,1.32.556,2.032.033,1.073-.424,1.977-.77,3.001Z" fill="#f7c28a"/><path d="M13.479,50.072c-.115-.149-.153-.35-.226-.52-.827-1.922-1.26-4.08-.657-6.065c1.194-3.939,5.87-5.585,8.644-3.478.372.283.272.268.48.145.556-.329,1.228-.217,1.784.122.036.022.072.046.108.07.704.479,1.118,1.286,1.369,2.1.589,1.913.174,2.52-1.294,7.094-.034.108-.078.444-.174.509-.25.17.096-.292-.081-3.463-.022-.387-.115-.855-.481-.98-.071.048-.258.26-.356.185-.067-.05-.035-.225-.03-.295.003-.064.004-.608.04-.62-.560977.207432-1.16199.283713-1.757.223-.447-.047.16-.417.278-.52.433-.379.45-.494.52-.507-1.087055.201616-2.152028.508047-3.18.915-.112.045-.31.183-.426.183-.186,0-.111-.16-.04-.251.128-.161.262-.317.392-.476-1.025.24-2.023.591-2.971,1.047-1.022.492-1.223.862-1.44,1.982-.246,1.274-.065,3.166-.502,2.6Z" fill="#b3722e"/></g><g opacity="0.33"><path d="M12.348,60.134c.757-.158,1.419.56.987,1.393-.155814.309687-.433242.540756-.766.638-1.547.412-1.475-1.768-.221-2.03v-.001Z" fill="#fff"/></g><g><path d="M44.208,41.128c.246-.123,1.222,4.738-.876,5.752-.439.212-.923.325-1.389.443-.42.106-.804.361-1.225.467-.51.197-.758.12-.941-.544-.2-.723.154-1.152.657-1.6c2.472-2.201,3.415-4.122,3.774-4.518Zm-9.6,6.346c.229-.215.338-.535.438-.84.272-.828.128-1.092-.385-1.448-1.153-.8-2.431-1.45-3.364-2.526-.144-.166-.311-.358-.525-.348-.196.01-.344.186-.455.356-1.223,1.88-1.388,4.545,2.602,4.977.421.045,1.17.32,1.69-.17l-.001-.001Z" fill="#707083"/><path d="M31.254,50.631c.382-.477.826-.923,1.074-1.492.258-.59.127-1.381.136-2.02.075-5.213.058-6.173.057-6.072c3.243,1.567,6.404,2.308,9.388,0-.068,2.235-.134.995-.074,5.5.008.591-.055,1.223.012,1.807.136,1.192,1.566,2.068,1.312,3.342-.116.576-.597,1.01-1.108,1.3-1.858,1.057-4.175.714-6.147.77-1.7.047-3.675.37-5.033-.875-.697-.64-.103-1.653.383-2.26Z" fill="#f7c28a"/><path d="M41.91,44.386c-.018.264-.049,1.368-.074,1.496-2.845,2.438-6.596,2.383-9.315.098v-1.618c1.47.858,2.99,1.593,4.633,1.74c1.642.123,3.431-.515,4.755-1.716h.001Z" fill="#eaaf71"/><path d="M44.724,40.34c-.256.47-.593.898-.91,1.348-.98,1.369-1.808,2.901-3.146,3.923-2.491144,1.893194-6.031595,1.487563-8.03-.92-.402-.48-.762-1.062-2.636-4.035-.411-.658-.87-1.359-1.114-2.098-.28-.85-.4-1.848-.402-2.739-.006-5.18,11.538-5.488,12.453-5.46c3.673.114,4.937,2.265,5.025,5.145.054,1.728-.682,3.185-1.24,4.835v.001Z" fill="#f7c28a"/><path d="M33.072,47.592c-.007-.021-.057-.033-.076-.041-2.796-1.263-2.523-2.293-1.86-4.13c1.172-3.25-.405-7.112,1.125-10.21.548-1.11,1.119-.787,1.528-.785.644.002,1.122-.56,1.62-.97c1.351-1.114,2.921-.886,3.583.1.559.83.306,1.93.326,2.931.025569,1.106841.410622,2.175302,1.097,3.044c1.102,1.387,2.556,1.898,3.397,4.028.618,1.565.596,3.349-.059,4.836-.028.064-.142.197-.05.258.06.04.269-.187.32-.233.823-.722,1.474-1.632,1.964-2.605c1.45-2.877,1.389-6.032.909-9.205-.3-1.982-.8-4.035-2.142-5.524-1.798-1.994-4.694-2.536-7.377-2.64-1.186-.045-2.574.044-3.117,1.185-1.067-.515-2.39-.273-3.373.39-.982.662-1.667,1.686-2.174,2.757-1.313,2.771-1.575,5.918-1.591,8.984-.014,2.556.208,5.248,2.183,6.895.929.774,2.516,1.298,3.687.986.019-.005.079-.014.08-.051Z" fill="#878796"/><path d="M42.35,51.835c-.002.006-1.545,17.11-1.542,17.23-.056.133.272.062-5.687.062h-.6c-.17,0-.433.046-.586,0-.093-.03-.093-.123-.108-.2c0-.152-1.658-18.286-1.665-18.387-.015-.123-.092-.354-.061-.478.138-.488,1.167.158,1.387.232c1.7.614,3.494.719,5.27.462c1.816-.266,2.977-.775,3.206-.832.07-.07.427-.047.54-.047.381,0,.183.204-.154,1.958Z" fill="#53d86a"/><circle r="1.315" transform="translate(37.404 55.465)" fill="#167ffc"/><circle r="1.315" transform="translate(37.404 60.444)" fill="#167ffc"/><circle r="1.315" transform="translate(37.404 65.423)" fill="#167ffc"/><path d="M42.704,50.155c-.527,2.9.094-3.14-1.896,18.91-.046.108-.139.078-.23.078h-.91l2.296-19.22c.021212-.018954.048556-.029608.077-.03.139-.031.309-.016.463-.016.155,0,.247.042.2.278Z" fill="#d9d9ea"/><path d="M42.579,49.872c.459-.068,1.687.973,2.88,1.414c2.888,1.067,5.546,1.86,7.01,3.658c1.376,1.691,1.472,3.949,1.514,6.054.115,5.8.248,6.436-.329,7.345-.713,1.123-2.136.831-3.321.807-.466-.01-8.446-.006-9.957-.006l1.96-18.657c.023-.218-.008-.578.243-.615Z" fill="#6e70cf"/><path d="M34.89,69.127h-.37c-.17,0-.432.046-.585,0-.093-.03-.093-.123-.108-.2c0-.152-1.658-18.286-1.665-18.387-.015-.123-.092-.354-.061-.478.061-.215.308-.215.57-.123L34.89,69.127Z" fill="#d9d9ea"/><path d="M32.098,50.198c.09-.126-.05-.302-.213-.326-.464-.068-1.702.973-2.905,1.414-6.42,2.353-8.462,2.925-8.598,9.712-.115,5.74-.25,6.436.332,7.346.72,1.123,2.155.83,3.35.806.47-.01,8.518-.006,10.042-.006L32.098,50.198Z" fill="#6e70cf"/></g></svg>
