<svg xmlns="http://www.w3.org/2000/svg" viewBox="0 0 80 80"><path fill="#75d385" d="M71.11 40c0 17.662-14.316 32-32 32-17.639 0-32-14.292-32-32 0-18.089 14.769-32 32-32 17.359 0 32 13.987 32 32z" class="color75d38f svgShape"/><path fill="#a58563" d="M57.224 66.39A31.865 31.865 0 0 1 39.114 72c-1.21 0-2.41-.07-3.58-.2a31.775 31.775 0 0 1-14.47-5.37l36.16-.04z" class="colora57763 svgShape"/><path fill="#9b754c" d="M39.114 66.43a3.88 3.88 0 0 0-3.87 3.87c0 .53.1 1.04.29 1.5a31.775 31.775 0 0 1-14.47-5.37h18.05z" class="color9b644c svgShape"/><path fill="#eff4f0" d="M50.827 63.91H29.173c5.609-4.517 5.405-11.41 4.517-15.917h12.62c-.888 4.507-1.092 11.4 4.517 15.917z" class="coloreff1f4 svgShape"/><path fill="#cecee0" d="M32.284 63.906h-3.107c5.61-4.51 5.405-11.402 4.51-15.911h3.117c.895 4.509 1.09 11.402-4.52 15.91z" class="colorced5e0 svgShape"/><path fill="#595bd4" d="M52.485 63.252h-24.97a2.467 2.467 0 0 0-2.467 2.467c0 .37.3.671.671.671h28.562c.37 0 .671-.3.671-.671a2.467 2.467 0 0 0-2.467-2.467z" class="color3f596b svgShape"/><path fill="#32335e" d="M36.47 64.82c0 .87.7 1.57 1.57 1.57H25.72a.67.67 0 0 1-.67-.67c0-1.36 1.1-2.47 2.47-2.47h10.52c-.87 0-1.57.7-1.57 1.57z" class="color324a5e svgShape"/><path fill="#595bd4" d="M72.89 14.34v39.57c0 1.63-1.31 2.95-2.95 2.95H11.91c-1.37-2.21-2.49-4.6-3.29-7.12-.98-3.07-1.51-6.34-1.51-9.74V14.34c0-.93.42-1.75 1.08-2.29.14-.12.3-.21.48-.31.16-.09.34-.16.52-.23.19-.05.38-.09.58-.12.09-.01.2-.01.3-.01h59.87c1.64 0 2.95 1.33 2.95 2.96z" class="color3f596b svgShape"/><path fill="#32335e" d="M17.09 56.86h-5.18c-1.37-2.21-2.49-4.6-3.29-7.12-.98-3.07-1.51-6.34-1.51-9.74V14.34c0-.93.42-1.75 1.08-2.29.14-.12.3-.22.48-.31.16-.1.34-.17.52-.23.19-.05.38-.09.58-.12.09-.01.2-.01.3-.01h7.02c-1.35 0-2.49.91-2.85 2.15-.06.26-.11.53-.11.81v39.57c0 1.63 1.32 2.95 2.96 2.95z" class="color324a5e svgShape"/><path fill="#fff" d="M70.61 13.88v35.04H9.39V13.9c.06-.1.16-.19.26-.25.13-.08.27-.12.42-.12h59.87c.08 0 .16.02.24.04.06.02.12.04.18.08.1.05.19.14.25.23z" class="colorffffff svgShape"/><circle cx="40.005" cy="52.69" r="2.248" fill="#eff4f0" class="coloreff1f4 svgShape"/><path fill="#cecee0" d="M40.646 54.835a1.838 1.838 0 0 1-.643.107 2.255 2.255 0 0 1-2.248-2.248 2.248 2.248 0 0 1 2.248-2.247c.225 0 .428.032.632.096a2.272 2.272 0 0 0-1.574 2.151c0 .996.664 1.863 1.585 2.141z" class="colorced5e0 svgShape"/><path fill="#32335e" d="M25.922 56.866h-12.71v-7.95h12.71c-1.1 0-2.09.44-2.81 1.16-.71.72-1.16 1.72-1.16 2.81 0 2.2 1.78 3.98 3.97 3.98z" class="color324a5e svgShape"/><path fill="#167ffc" d="M20.959 33.402a7.01 7.01 0 0 1-3-1.307.548.548 0 0 0-.714.061l-1.182 1.183a.548.548 0 0 0 .035.814 9.815 9.815 0 0 0 4.693 2.022.557.557 0 0 0 .64-.547v-1.68a.56.56 0 0 0-.473-.546zm2.207-14.104a7.047 7.047 0 0 1 3.233 1.28.56.56 0 0 0 .729-.045l1.181-1.185a.556.556 0 0 0-.062-.835 9.823 9.823 0 0 0-4.958-1.98.557.557 0 0 0-.623.548v1.668a.56.56 0 0 0 .5.55z" class="color54c0eb svgShape"/><path fill="#8486ff" d="M20.957 33.402a6.917 6.917 0 0 1-.537-.118c-.86-.226-1.695.446-1.695 1.336 0 .619.41 1.169 1.008 1.333.355.097.717.174 1.09.226.332.047.609-.215.609-.55v-1.681a.56.56 0 0 0-.475-.546zM28.27 18.53a9.62 9.62 0 0 0-2.135-1.243c-.9-.38-1.896.306-1.896 1.282v.002c0 .552.333 1.045.84 1.262.468.2.91.45 1.32.745a.56.56 0 0 0 .73-.045l1.181-1.185a.54.54 0 0 0-.04-.818z" class="color84dbff svgShape"/><path fill="#f19a3f" d="M20.786 16.582a9.897 9.897 0 0 0-8.395 8.681.547.547 0 0 0 .55.597h1.67a.56.56 0 0 0 .549-.493 7.155 7.155 0 0 1 5.8-6.018.559.559 0 0 0 .472-.545v-1.677a.557.557 0 0 0-.646-.545zm10.71 10.512h-1.677a.56.56 0 0 0-.546.477 7.148 7.148 0 0 1-6.108 5.886.559.559 0 0 0-.5.548v1.669c0 .32.275.584.594.55 4.547-.467 8.181-4.017 8.785-8.521a.547.547 0 0 0-.549-.609z" class="colorf1543f svgShape"/><path fill="#ffae58" d="M16.714 21.852a7.139 7.139 0 0 1 4.246-2.503.559.559 0 0 0 .472-.545v-1.677a.538.538 0 0 0-.614-.55 9.858 9.858 0 0 0-6.243 3.528c-.729.89-.09 2.23 1.06 2.23.412 0 .818-.164 1.08-.483zm14.781 5.242h-1.677c-.276 0-.5.206-.545.48a7.104 7.104 0 0 1-2.284 4.11c-.305.272-.5.646-.5 1.055v.055c0 1.163 1.376 1.806 2.251 1.042a9.886 9.886 0 0 0 3.304-6.132.549.549 0 0 0-.549-.61z" class="colorff7058 svgShape"/><path fill="#2b2c4e" d="M27.967 22.127a7.095 7.095 0 0 1 1.334 3.24c.04.28.266.493.548.493h1.67a.557.557 0 0 0 .547-.628 9.861 9.861 0 0 0-2.045-4.962.556.556 0 0 0-.832-.057l-1.182 1.181a.559.559 0 0 0-.04.733zm-11.521 8.437a7.048 7.048 0 0 1-1.258-2.99.56.56 0 0 0-.547-.48h-1.673a.557.557 0 0 0-.547.638 9.83 9.83 0 0 0 1.964 4.682c.2.258.587.27.817.04l1.176-1.176a.554.554 0 0 0 .068-.714z" class="color2b3b4e svgShape"/><path fill="#32335e" d="M29.122 24.506c.077.28.137.566.18.86a.56.56 0 0 0 .547.494h1.67a.54.54 0 0 0 .55-.598 9.53 9.53 0 0 0-.304-1.542 1.39 1.39 0 0 0-1.334-1.014h-.002c-.934 0-1.555.9-1.307 1.8zM14.484 28.52a1.382 1.382 0 0 0-1.261 1.943c.311.697.7 1.351 1.163 1.95a.548.548 0 0 0 .816.04l1.176-1.176a.59.59 0 0 0 .047-.743 6.981 6.981 0 0 1-.707-1.233 1.345 1.345 0 0 0-1.234-.78z" class="color324a5e svgShape"/><path fill="#eff4f0" d="M29.37 43.92v1.21c0 .44-.36.79-.8.79H15.33c-.44 0-.79-.35-.79-.79v-1.21c0-.44.35-.8.79-.8h13.24c.44 0 .8.36.8.8zm-5-4.067v1.21c0 .44-.36.79-.8.79h-8.24c-.44 0-.79-.35-.79-.79v-1.21c0-.44.35-.8.79-.8h8.24c.44 0 .8.36.8.8z" class="coloreff1f4 svgShape"/><path fill="#e6eee7" d="M19.792 45.92h-4.46c-.44 0-.79-.35-.79-.79v-1.21c0-.44.35-.8.79-.8h4.46c-.77 0-1.4.63-1.4 1.4 0 .77.63 1.4 1.4 1.4zm0-4.07h-4.46c-.44 0-.79-.35-.79-.79v-1.21c0-.44.35-.8.79-.8h4.46c-.77 0-1.4.63-1.4 1.4 0 .78.63 1.4 1.4 1.4z" class="colore6e9ee svgShape"/><path fill="#595bd4" d="m47.945 34.353 5.437-5.462 5.86 3.338 6.195-7.159-1.061-.918-5.441 6.288-5.79-3.298-6.193 6.222z" class="color3f596b svgShape"/><path fill="#ffaf5b" d="M61.041 31.338a1.953 1.953 0 1 1-3.906 0 1.954 1.954 0 1 1 3.906 0z" class="colorffd05b svgShape"/><path fill="#ffae58" d="M66.865 24.609a1.963 1.963 0 0 1-1.963 1.963 1.959 1.959 0 1 1 1.963-1.963z" class="colorff7058 svgShape"/><path fill="#90df9e" d="M55.218 28.02a1.953 1.953 0 1 1-3.906 0 1.96 1.96 0 0 1 1.953-1.963c1.084 0 1.953.88 1.953 1.963z" class="color90dfaa svgShape"/><path fill="#cecee0" d="M49.405 33.862a1.959 1.959 0 1 1-1.963-1.963c1.084 0 1.963.879 1.963 1.963z" class="colorced5e0 svgShape"/><path fill="#fe9526" d="M59.808 33.161c-.225.084-.468.13-.72.13a1.953 1.953 0 0 1-1.953-1.952c0-1.085.869-1.963 1.953-1.963.252 0 .495.046.72.14-.73.28-1.244.99-1.244 1.823 0 .822.515 1.532 1.244 1.822z" class="colorf9b54c svgShape"/><path fill="#f19a3f" d="M65.621 26.431c-.224.094-.467.14-.72.14a1.959 1.959 0 0 1 0-3.916c.253 0 .496.047.72.131-.72.29-1.243 1-1.243 1.823 0 .832.524 1.542 1.243 1.822z" class="colorf1543f svgShape"/><path fill="#53d86a" d="M53.975 29.834c-.224.093-.458.14-.71.14a1.959 1.959 0 1 1 .71-3.785c-.72.29-1.234 1-1.234 1.831a1.95 1.95 0 0 0 1.234 1.814z" class="color65c97a svgShape"/><path fill="#acacba" d="M48.162 35.685c-.225.084-.468.13-.72.13a1.959 1.959 0 0 1 0-3.916c.252 0 .495.047.72.14a1.96 1.96 0 0 0-1.243 1.823 1.98 1.98 0 0 0 1.243 1.823z" class="coloracb3ba svgShape"/><path fill="#595bd4" d="m39.624 36.017-1.248.485a.228.228 0 0 0-.08.373l1.063 1.063a.23.23 0 0 1 0 .323l-.64.64a.23.23 0 0 1-.324 0l-1.062-1.062a.228.228 0 0 0-.374.08l-.485 1.247a.229.229 0 0 1-.432-.014l-1.508-4.788a.23.23 0 0 1 .288-.288l4.787 1.509a.229.229 0 0 1 .015.432z" class="color3f596b svgShape"/><path fill="#32335e" d="M36.666 38.531c.007.022.022.044.03.06l-.222.577a.227.227 0 0 1-.43-.015l-1.51-4.791a.232.232 0 0 1 .288-.29l.489.156 1.355 4.303zm2.674-.252-.623.622a.232.232 0 0 1-.325 0l-1.03-1.03.222-.577a.227.227 0 0 1 .37-.081l1.067 1.066c.089.09.23.09.319 0z" class="color324a5e svgShape"/><path fill="#8486ff" d="M62.99 30.51v13.941c0 .376.308.684.683.684h2.467a.685.685 0 0 0 .684-.684v-13.94a.685.685 0 0 0-.684-.684h-2.467a.685.685 0 0 0-.683.683zm-17.459 8.252v5.69c0 .375.308.683.684.683h2.467a.685.685 0 0 0 .683-.684v-5.69a.685.685 0 0 0-.683-.683h-2.467a.685.685 0 0 0-.684.684zm11.644-2.003v7.692c0 .376.3.684.683.684h2.46a.681.681 0 0 0 .684-.684V36.76a.682.682 0 0 0-.683-.684h-2.46a.68.68 0 0 0-.684.684zm-5.829-3.191V44.45c0 .376.308.684.684.684h2.467a.681.681 0 0 0 .683-.684V33.568a.68.68 0 0 0-.683-.684H52.03a.685.685 0 0 0-.684.684z" class="color84dbff svgShape"/><path fill="#167ffc" d="M62.986 39.993v4.459c0 .374.308.682.691.682h2.468a.686.686 0 0 0 .682-.682v-4.458c0 1.056-.86 1.915-1.916 1.915h-.01a1.919 1.919 0 0 1-1.915-1.916zm-17.45 0v4.459a.68.68 0 0 0 .682.682h2.467a.686.686 0 0 0 .683-.682v-4.458c0 1.056-.86 1.915-1.916 1.915h-.01a1.91 1.91 0 0 1-1.907-1.916zm11.636 0v4.459c0 .374.3.682.682.682h2.468a.68.68 0 0 0 .682-.682v-4.458a1.919 1.919 0 0 1-3.271 1.355 1.922 1.922 0 0 1-.561-1.355zm-5.823 0v4.459c0 .374.309.682.682.682H54.5a.68.68 0 0 0 .682-.682v-4.458c0 1.056-.86 1.915-1.916 1.915h-.01a1.91 1.91 0 0 1-1.906-1.916z" class="color54c0eb svgShape"/><path fill="#fe9526" d="M19.048 25.588v3.363a.73.73 0 0 1-1.461 0v-3.363a.73.73 0 1 1 1.461 0zm2.479.95v2.413a.73.73 0 0 1-1.461 0V26.54a.73.73 0 1 1 1.461 0zm2.479-2.736v5.15a.73.73 0 0 1-1.461 0v-5.15a.73.73 0 0 1 1.461 0zm2.478 2.417v2.732a.73.73 0 0 1-1.461 0v-2.732a.73.73 0 1 1 1.461 0z" class="colorf9b54c svgShape"/><path fill="#ffaf5b" d="M19.047 26.905v2.047a.732.732 0 0 1-1.462 0v-2.047a.732.732 0 1 0 1.462 0zm2.484.444v1.603a.732.732 0 0 1-1.462 0V27.35a.732.732 0 0 0 1.462 0zm2.474-1.614v3.217a.732.732 0 0 1-1.462 0v-3.217a.732.732 0 1 0 1.462 0zm2.484 1.614v1.603a.732.732 0 0 1-1.462 0V27.35a.731.731 0 0 0 1.462 0z" class="colorffd05b svgShape"/></svg>