<svg xmlns="http://www.w3.org/2000/svg" fill="none" viewBox="0 0 24 24"><path fill="#5fe4d4" fill-rule="evenodd" d="M4 1a3 3 0 0 0-3 3v16a3 3 0 0 0 3 3h11a3 3 0 0 0 3-3v-1H7a1 1 0 0 1-1-1V1H4Z" class="colorc4e6ff svgShape" clip-rule="evenodd"/><path fill="#8526fe" fill-rule="evenodd" d="M4 1a3 3 0 0 0-3 3v16a3 3 0 0 0 3 3h13a1 1 0 1 0 0-2H4a1 1 0 0 1-1-1V4a1 1 0 0 1 1-1h6v3a3 3 0 0 0 3 3h4a1 1 0 0 0 1-1v-.172a3 3 0 0 0-.879-2.12l-3.828-3.83A3 3 0 0 0 11.172 1H4Zm11.586 6L12 3.414V6a1 1 0 0 0 1 1h2.586Z" class="color024493 svgShape" clip-rule="evenodd"/><path fill="#d8a353" d="m19.707 18.707 3-3a1 1 0 0 0 0-1.414l-3-3a1 1 0 0 0-1.414 1.414L19.586 14H10a1 1 0 1 0 0 2h9.586l-1.293 1.293a1 1 0 1 0 1.414 1.414Z" class="color1e93ff svgShape"/></svg>