<svg xmlns="http://www.w3.org/2000/svg" viewBox="0 0 53 53"><path fill="#e4e3ff" d="M50.5 13.395v26.21c0 2.6-2.11 4.71-4.71 4.71H7.21c-2.61 0-4.71-2.11-4.71-4.71v-26.21c0-2.6 2.1-4.71 4.71-4.71h38.58c2.6 0 4.71 2.11 4.71 4.71z"/><path fill="#e4e3ff" d="M7.21 42.315a2.713 2.713 0 0 1-2.71-2.71v-26.21a2.713 2.713 0 0 1 2.71-2.71h38.58a2.712 2.712 0 0 1 2.71 2.71v26.21a2.712 2.712 0 0 1-2.71 2.71H7.21z"/><path fill="#d0d0f7" d="M50.5 13.395v26.21a4.71 4.71 0 0 1-4.71 4.71H7.21c-2.02 0-3.74-1.27-4.4-3.05.77.56 1.71.88 2.73.88h12.37c17.077 0 30.92-13.843 30.92-30.92 0-.58-.11-1.14-.3-1.65 1.19.85 1.97 2.24 1.97 3.82z"/><path fill="#fc6559" d="M2.5 21.045h48v5.83h-48z"/><path fill="#ecb021" d="M10.525 21.045h8.58v5.83h-8.58z"/><path fill="#fc6559" d="M11.9 8.685h5.83v35.63H11.9z"/><path fill="#e24b40" d="M24.91 23.775c-.28.93-.76 1.85-1.45 2.82-.07.09-.14.19-.21.28h-5.52v5.28c-.51.38-1.05.74-1.6 1.1-.36.22-.77.34-1.19.34s-.83-.12-1.18-.34c-.65-.42-1.27-.85-1.86-1.29v-5.09H6.64c-.07-.09-.14-.19-.21-.28-.69-.96-1.17-1.89-1.46-2.82-.32-1.02-.41-1.93-.36-2.73h7.29v-5.43c.01 0 .03.01.04.01 1.33.32 2.31.99 3 1.66.65-.63 1.57-1.27 2.79-1.6v5.36h7.54c.05.8-.04 1.71-.36 2.73z"/><path fill="#fc6559" d="M23.48 23.329c-.266.864-.717 1.659-1.243 2.394-1.685 2.35-4.067 4.433-6.92 6.266a.698.698 0 0 1-.747 0c-2.851-1.832-5.233-3.914-6.917-6.263-.527-.736-.979-1.53-1.246-2.395-.822-2.664.153-4.3 1.222-5.232 1.077-.942 2.574-1.34 3.966-1.016 1.673.402 2.642 1.554 3.075 2.212.13.198.418.198.548 0 .432-.658 1.401-1.81 3.074-2.212 1.392-.324 2.889.074 3.967 1.016 1.068.932 2.042 2.567 1.222 5.23z"/><path fill="#f05543" d="M23.483 23.326c-.264.864-.72 1.665-1.247 2.394-1.684 2.357-4.069 4.433-6.918 6.271a.692.692 0 0 1-.746 0 30.62 30.62 0 0 1-3.905-2.949c.546.11 1.11.164 1.684.164 4.851 0 8.783-3.932 8.783-8.775a8.799 8.799 0 0 0-.637-3.286c.646.182 1.247.51 1.766.956 1.065.928 2.04 2.567 1.22 5.225z"/><path fill="#fff" d="M7.59 22.753a.393.393 0 0 1-.393-.384c-.038-1.672.949-3.213 2.455-3.834.896-.368 1.774-.353 2.647.054a.393.393 0 1 1-.332.714c-.676-.315-1.323-.323-2.016-.04-1.206.498-1.997 1.739-1.967 3.088a.394.394 0 0 1-.385.402H7.59z" opacity=".4"/><path fill="#f9b938" d="m23.76 10.362.556 1.125c.045.09.13.153.23.167l1.242.18c.25.037.35.345.17.522l-.899.876a.306.306 0 0 0-.088.27l.212 1.237c.043.25-.22.44-.444.322l-1.11-.583a.306.306 0 0 0-.285 0l-1.11.583a.306.306 0 0 1-.444-.322l.212-1.236a.306.306 0 0 0-.088-.271l-.898-.876a.306.306 0 0 1 .17-.522l1.24-.18a.306.306 0 0 0 .231-.167l.555-1.125a.306.306 0 0 1 .549 0z"/><path fill="#e5a320" d="m23.758 10.36.08.17c-.01.02-.03.04-.04.07l-.55 1.12c-.05.09-.13.15-.23.17l-1.24.18c-.26.04-.36.34-.17.52l.89.88c.08.07.11.17.09.27l-.21 1.23v.02l-.14.07a.308.308 0 0 1-.45-.32l.21-1.24c.02-.1-.01-.2-.08-.27l-.9-.87a.313.313 0 0 1 .17-.53l1.24-.18c.1-.01.18-.07.23-.16l.55-1.13c.12-.23.44-.23.55 0z"/><path fill="#f9b938" d="m34.136 13.334.555 1.125c.045.09.13.153.23.168l1.242.18c.25.037.35.345.17.522l-.899.875a.306.306 0 0 0-.088.271l.212 1.237c.043.25-.22.44-.444.322l-1.11-.584a.306.306 0 0 0-.285 0l-1.11.584a.306.306 0 0 1-.444-.322l.212-1.237a.306.306 0 0 0-.088-.27l-.898-.876a.306.306 0 0 1 .17-.522l1.24-.18a.306.306 0 0 0 .231-.168l.555-1.125a.306.306 0 0 1 .549 0z"/><path fill="#e5a320" d="m34.133 13.333.08.17c-.01.02-.03.04-.04.07l-.55 1.12c-.05.09-.13.15-.23.17l-1.24.18c-.26.04-.36.34-.17.52l.89.88c.08.07.11.17.09.27l-.21 1.23v.02l-.14.07a.308.308 0 0 1-.45-.32l.21-1.24c.02-.1-.01-.2-.08-.27l-.9-.87a.313.313 0 0 1 .17-.53l1.24-.18c.1-.01.18-.07.23-.16l.55-1.13c.12-.23.44-.23.55 0z"/><path fill="#f9b938" d="m44.198 10.365.556 1.125c.044.09.13.153.23.167l1.241.18a.307.307 0 0 1 .17.523l-.898.875a.306.306 0 0 0-.088.271l.212 1.236c.042.25-.22.44-.444.323l-1.11-.584a.306.306 0 0 0-.285 0l-1.11.584a.306.306 0 0 1-.444-.323l.212-1.236a.306.306 0 0 0-.088-.27l-.899-.876a.306.306 0 0 1 .17-.522l1.241-.18a.306.306 0 0 0 .23-.168l.556-1.125a.306.306 0 0 1 .548 0z"/><path fill="#e5a320" d="m44.195 10.363.08.17c-.01.02-.03.04-.04.07l-.55 1.12c-.05.09-.13.15-.23.17l-1.24.18c-.26.04-.36.34-.17.52l.89.88c.08.07.11.17.09.27l-.21 1.23v.02l-.14.07a.308.308 0 0 1-.45-.32l.21-1.24c.02-.1-.01-.2-.08-.27l-.9-.87a.313.313 0 0 1 .17-.53l1.24-.18c.1-.01.18-.07.23-.16l.55-1.13c.12-.23.44-.23.55 0z"/><path fill="#f9b938" d="m23.76 28.918.556 1.125c.045.09.13.153.23.167l1.242.18c.25.037.35.346.17.523l-.899.875a.306.306 0 0 0-.088.27l.212 1.237c.043.25-.22.44-.444.323l-1.11-.584a.306.306 0 0 0-.285 0l-1.11.584a.306.306 0 0 1-.444-.323l.212-1.236a.306.306 0 0 0-.088-.27l-.898-.876a.306.306 0 0 1 .17-.522l1.24-.18a.306.306 0 0 0 .231-.168l.555-1.125a.306.306 0 0 1 .549 0z"/><path fill="#e5a320" d="m23.758 28.916.08.17c-.01.02-.03.04-.04.07l-.55 1.12c-.05.09-.13.15-.23.17l-1.24.18c-.26.04-.36.34-.17.52l.89.88c.08.07.11.17.09.27l-.21 1.23v.02l-.14.07a.308.308 0 0 1-.45-.32l.21-1.24c.02-.1-.01-.2-.08-.27l-.9-.87a.313.313 0 0 1 .17-.53l1.24-.18c.1-.01.18-.07.23-.16l.55-1.13c.12-.23.44-.23.55 0z"/><path fill="#f9b938" d="m8.236 35.71.555 1.125c.044.09.13.153.23.167l1.242.18c.25.037.35.345.17.522l-.9.876a.306.306 0 0 0-.087.27l.212 1.237c.043.25-.22.44-.444.322l-1.11-.583a.306.306 0 0 0-.285 0l-1.11.583a.306.306 0 0 1-.444-.322l.212-1.236a.306.306 0 0 0-.088-.271l-.898-.876a.306.306 0 0 1 .17-.522l1.24-.18a.306.306 0 0 0 .231-.167l.555-1.125a.306.306 0 0 1 .549 0z"/><path fill="#e5a320" d="m8.233 35.708.08.17c-.01.02-.03.04-.04.07l-.55 1.12c-.05.09-.13.15-.23.17l-1.24.18c-.26.04-.36.34-.17.52l.89.88c.08.07.11.17.09.27l-.21 1.23v.02l-.14.07a.308.308 0 0 1-.45-.32l.21-1.24c.02-.1-.01-.2-.08-.27l-.9-.87a.313.313 0 0 1 .17-.53l1.24-.18c.1-.01.18-.07.23-.16l.55-1.13c.12-.23.44-.23.55 0z"/><path fill="#f9b938" d="m6.194 28.668.555 1.125c.045.09.13.153.23.167l1.242.18c.25.037.351.346.17.523l-.899.875a.306.306 0 0 0-.088.27l.212 1.237c.043.25-.22.44-.444.323l-1.11-.584a.306.306 0 0 0-.285 0l-1.11.584a.306.306 0 0 1-.444-.323l.212-1.236a.306.306 0 0 0-.088-.27l-.898-.876a.306.306 0 0 1 .17-.522l1.241-.18a.306.306 0 0 0 .23-.168l.555-1.125a.306.306 0 0 1 .55 0z"/><path fill="#e5a320" d="m6.191 28.666.08.17c-.01.02-.03.04-.04.07l-.55 1.12c-.05.09-.13.15-.23.17l-1.24.18c-.26.04-.36.34-.17.52l.89.88c.08.07.11.17.09.27l-.21 1.23v.02l-.14.07a.308.308 0 0 1-.45-.32l.21-1.24c.02-.1-.01-.2-.08-.27l-.9-.87a.313.313 0 0 1 .17-.53l1.24-.18c.1-.01.18-.07.23-.16l.55-1.13c.12-.23.44-.23.55 0z"/><path fill="#f9b938" d="m7.47 10.883.555 1.125c.045.09.13.153.23.168l1.242.18c.25.036.35.345.17.522l-.899.875a.306.306 0 0 0-.088.271l.212 1.236c.043.25-.22.44-.444.323l-1.11-.584a.306.306 0 0 0-.285 0l-1.11.584a.306.306 0 0 1-.444-.323l.212-1.236a.306.306 0 0 0-.088-.27l-.898-.876a.306.306 0 0 1 .17-.522l1.24-.18a.306.306 0 0 0 .231-.168l.555-1.125a.306.306 0 0 1 .549 0z"/><path fill="#e5a320" d="m7.467 10.882.08.17c-.01.02-.03.04-.04.07l-.55 1.12c-.05.09-.13.15-.23.17l-1.24.18c-.26.04-.36.34-.17.52l.89.88c.08.07.11.17.09.27l-.21 1.23v.02l-.14.07a.308.308 0 0 1-.45-.32l.21-1.24c.02-.1-.01-.2-.08-.27l-.9-.87a.313.313 0 0 1 .17-.53l1.24-.18c.1-.01.18-.07.23-.16l.55-1.13c.12-.23.44-.23.55 0z"/><path fill="#f9b938" d="m34.136 31.89.555 1.126c.045.09.13.153.23.167l1.242.18c.25.037.35.345.17.522l-.899.876a.306.306 0 0 0-.088.27l.212 1.237c.043.25-.22.44-.444.322l-1.11-.583a.306.306 0 0 0-.285 0l-1.11.583a.306.306 0 0 1-.444-.322l.212-1.236a.306.306 0 0 0-.088-.271l-.898-.876a.306.306 0 0 1 .17-.522l1.24-.18a.306.306 0 0 0 .231-.167l.555-1.125a.306.306 0 0 1 .549 0z"/><path fill="#e5a320" d="m34.133 31.889.08.17c-.01.02-.03.04-.04.07l-.55 1.12c-.05.09-.13.15-.23.17l-1.24.18c-.26.04-.36.34-.17.52l.89.88c.08.07.11.17.09.27l-.21 1.23v.02l-.14.07a.308.308 0 0 1-.45-.32l.21-1.24c.02-.1-.01-.2-.08-.27l-.9-.87a.313.313 0 0 1 .17-.53l1.24-.18c.1-.01.18-.07.23-.16l.55-1.13c.12-.23.44-.23.55 0z"/><path fill="#f9b938" d="m25.884 37.58.555 1.125c.045.09.131.153.23.167l1.242.18a.306.306 0 0 1 .17.522l-.899.876a.306.306 0 0 0-.088.27l.212 1.237a.305.305 0 0 1-.443.322l-1.11-.583a.306.306 0 0 0-.286 0l-1.11.583a.306.306 0 0 1-.444-.322l.212-1.236a.306.306 0 0 0-.088-.271l-.898-.876a.306.306 0 0 1 .17-.522l1.241-.18a.306.306 0 0 0 .23-.167l.556-1.125a.306.306 0 0 1 .548 0z"/><path fill="#e5a320" d="m25.881 37.578.08.17c-.01.02-.03.04-.04.07l-.55 1.12c-.05.09-.13.15-.23.17l-1.24.18c-.26.04-.36.34-.17.52l.89.88c.08.07.11.17.09.27l-.21 1.23v.02l-.14.07a.308.308 0 0 1-.45-.32l.21-1.24c.02-.1-.01-.2-.08-.27l-.9-.87a.313.313 0 0 1 .17-.53l1.24-.18c.1-.01.18-.07.23-.16l.55-1.13c.12-.23.44-.23.55 0z"/><path fill="#f9b938" d="m41.986 37.288.555 1.125c.045.09.131.153.23.167l1.242.18a.307.307 0 0 1 .17.523l-.899.875a.306.306 0 0 0-.088.271l.212 1.236a.306.306 0 0 1-.443.323l-1.11-.584a.306.306 0 0 0-.285 0l-1.11.584a.306.306 0 0 1-.445-.323l.212-1.236a.306.306 0 0 0-.087-.27l-.899-.876a.306.306 0 0 1 .17-.522l1.241-.18a.306.306 0 0 0 .23-.168l.556-1.125a.306.306 0 0 1 .548 0z"/><path fill="#e5a320" d="m41.983 37.286.08.17c-.01.02-.03.04-.04.07l-.55 1.12c-.05.09-.13.15-.23.17l-1.24.18c-.26.04-.36.34-.17.52l.89.88c.08.07.11.17.09.27l-.21 1.23v.02l-.14.07a.308.308 0 0 1-.45-.32l.21-1.24c.02-.1-.01-.2-.08-.27l-.9-.87a.313.313 0 0 1 .17-.53l1.24-.18c.1-.01.18-.07.23-.16l.55-1.13c.12-.23.44-.23.55 0z"/><path fill="#f9b938" d="m44.901 28.922.555 1.124c.045.09.13.153.23.168l1.242.18c.25.037.351.345.17.522l-.899.876a.306.306 0 0 0-.088.27l.212 1.237c.043.25-.22.44-.444.322l-1.11-.584a.306.306 0 0 0-.285 0l-1.11.584a.306.306 0 0 1-.444-.322l.212-1.237a.306.306 0 0 0-.088-.27l-.898-.876a.306.306 0 0 1 .17-.522l1.24-.18a.306.306 0 0 0 .231-.168l.555-1.124a.306.306 0 0 1 .549 0z"/><path fill="#e5a320" d="m44.898 28.92.08.17c-.01.02-.03.04-.04.07l-.55 1.12c-.05.09-.13.15-.23.17l-1.24.18c-.26.04-.36.34-.17.52l.89.88c.08.07.11.17.09.27l-.21 1.23v.02l-.14.07a.308.308 0 0 1-.45-.32l.21-1.24c.02-.1-.01-.2-.08-.27l-.9-.87a.313.313 0 0 1 .17-.53l1.24-.18c.1-.01.18-.07.23-.16l.55-1.13c.12-.23.44-.23.55 0z"/><path fill="#fff" d="M47.247 23.262h-4.123a.555.555 0 1 1 0-1.11h4.123a.555.555 0 1 1 0 1.11zm-6.387 0h-.404a.555.555 0 1 1 0-1.11h.404a.555.555 0 1 1 0 1.11zm-3.743-12.058h-5.484a.738.738 0 1 1 0-1.477h5.484a.738.738 0 1 1 0 1.477zm-8.494 0h-.537a.738.738 0 1 1 0-1.477h.537a.738.738 0 1 1 0 1.477z" opacity=".4"/></svg>