<svg xmlns="http://www.w3.org/2000/svg" viewBox="0 0 512 512"><path fill="#E8E9EA" d="M230.247 211.323c40.41 0 73.17 32.76 73.17 73.17s-32.76 73.17-73.17 73.17-73.17-32.76-73.17-73.17 32.761-73.17 73.17-73.17zm36.261 73.169c0-20.02-16.23-36.26-36.26-36.26-20.02 0-36.26 16.24-36.26 36.26 0 20.03 16.24 36.26 36.26 36.26 20.029.001 36.26-16.23 36.26-36.26z"/><path fill="#E8E9EA" d="M230.247 131.732c84.37 0 152.77 68.39 152.77 152.76s-68.4 152.76-152.77 152.76-152.76-68.39-152.76-152.76 68.391-152.76 152.76-152.76zm112.041 152.76c0-61.88-50.16-112.04-112.04-112.04s-112.04 50.16-112.04 112.04 50.16 112.04 112.04 112.04 112.04-50.16 112.04-112.04z"/><path fill="#F7316E" d="M230.247 92.853c-105.84 0-191.64 85.8-191.64 191.64s85.8 191.64 191.64 191.64c51.48 0 98.22-20.3 132.65-53.34 1.93-1.84 3.81-3.72 5.66-5.65 33.03-34.43 53.33-81.17 53.33-132.65.001-105.84-85.799-191.64-191.64-191.64zm110.81 296.79c-1.83 1.93-3.71 3.82-5.65 5.66-27.39 25.99-64.42 41.95-105.16 41.95-84.37 0-152.76-68.39-152.76-152.76s68.39-152.76 152.76-152.76 152.77 68.39 152.77 152.76c.001 40.739-15.949 77.77-41.96 105.15z"/><path fill="#F7316E" d="M230.247 172.452c61.88 0 112.04 50.16 112.04 112.04s-50.16 112.04-112.04 112.04-112.04-50.16-112.04-112.04 50.161-112.04 112.04-112.04zm73.171 112.04c0-40.41-32.76-73.17-73.17-73.17s-73.17 32.76-73.17 73.17 32.76 73.17 73.17 73.17 73.17-32.76 73.17-73.17z"/><path fill="#F7316E" d="M230.247 248.232c20.03 0 36.26 16.24 36.26 36.26 0 20.03-16.23 36.26-36.26 36.26-20.02 0-36.26-16.23-36.26-36.26.001-20.019 16.241-36.26 36.26-36.26z"/><path fill="#F4BC1E" d="M425.783 37.868v51.09h51.089l-42.769 42.77h-51.09v-51.09l42.77-42.77"/><g fill="#1E294C"><path d="m392.588 129.223-155.97 155.98-2.83 2.83a5.022 5.022 0 0 1-4.24 1.41 4.936 4.936 0 0 1-2.83-1.41 4.985 4.985 0 0 1 0-7.07l158.8-158.81a5.003 5.003 0 0 1 7.07 0 4.985 4.985 0 0 1 0 7.07z"/><path d="M368.557 417.143c-1.85 1.93-3.73 3.81-5.66 5.65l-27.49-27.49-105.86-105.86a5.022 5.022 0 0 0 4.24-1.41l2.83-2.83 131.94 131.94z" opacity=".2"/></g></svg>