<svg xmlns="http://www.w3.org/2000/svg" shape-rendering="geometricPrecision" text-rendering="geometricPrecision" viewBox="0 0 110 110"><circle r="50" fill="#e7efff" transform="translate(54 59)"/><circle r="3" fill="#ffa100" transform="translate(18 4)"/><circle r="3" fill="#00c99f" transform="translate(106 37)"/><circle r="3" fill="#ff4d69" transform="translate(100 102)"/><circle r="3" fill="#00c99f" transform="translate(4 97)"/><path fill="#ff4d69" d="M87 5a15.07 15.07 0 0 0-13.86 20.75c.83 2 .45 3.05-.13 7.11A1 1 0 0 0 74 34c.11 0 4.15-.58 4-.57 3.09-.44 4.11 1.69 9.33 1.57 8.284-.091 14.926-6.88 14.835-15.165S95.285 4.909 87 5Z"/><path fill="#fff" d="M87 23a2.18 2.18 0 0 1-2.17-2l-.58-7a2.76 2.76 0 1 1 5.5 0l-.58 7A2.18 2.18 0 0 1 87 23Z"/><circle r="2" fill="#fff" transform="translate(87 27)"/><path fill="#323fd4" d="M103.15 68.21c-4.166 22.262-22.776 38.943-45.359 40.66S14.291 96.906 6.81 75.53A47.85 47.85 0 0 1 47.24 65c24.02 4.62 42.92 10.94 55.91 3.21Z"/><path fill="#a5bced" d="M71 55h-8V37a4 4 0 1 1 8 0v18Zm-8 1h-8V32a4 4 0 1 1 8 0v24Zm-16 5h-8V32a4 4 0 1 1 8 0v29Zm8-6h-8V27a4 4 0 1 1 8 0v28Z"/><path fill="#a5bced" d="M71 55v10.63a11.08 11.08 0 0 1-1.87 6.17 11.15 11.15 0 0 0-1.84 7L68 88H39l1-16-14.07-15.83a3.07 3.07 0 0 1 .12-4.17A7 7 0 0 1 36 52l3 3h32Z"/><path fill="#7f96d1" d="M55 27v23a1 1 0 1 1-2 0V26a3 3 0 0 0-2.54-3A4 4 0 0 1 55 27Zm-8 5v18a1 1 0 1 1-2 0V31a3 3 0 0 0-2.54-3A4 4 0 0 1 47 32Zm16 0v19a1 1 0 1 1-2 0V31a3 3 0 0 0-2.54-3A4 4 0 0 1 63 32Zm-9.08 35.5V70a1 1 0 1 1-2 0v-2.5a9 9 0 0 0-9-9 1 1 0 0 1-.71-.29L39 55v-2.82l4.34 4.33A11 11 0 0 1 53.92 67.5Z"/><path fill="#4e6aff" d="M98.8 81.21c-16.84 33.9-63.7 37.53-85.59 6.7 2.27-1 22.62-9.56 45.24-3.91 21.97 5.49 33.89 1.57 40.35-2.79Z"/></svg>