<svg xmlns="http://www.w3.org/2000/svg" viewBox="0 0 52 52"><path fill="#1d2943" d="M6.09 49.29c-.06-.02-.1-.07-.14-.11.03.03.05.06.08.08l.09.06c-.01-.01-.02-.01-.03-.03z"/><path fill="#1d2943" d="M29.08 34.92c0 .89-.62 1.96-1.38 2.41L7.1 49.22c-.4.23-.76.24-1.01.07-.06-.02-.1-.07-.14-.11.03.03.05.06.08.08l-2.67-1.55c-.25-.15-.4-.46-.41-.9l-.08-30.34c-.01-.87.61-1.94 1.38-2.39L24.84 2.19c.38-.22.74-.24.99-.1l2.68 1.57c.03.01.06.02.08.04.25.14.4.45.4.89l.09 30.33z"/><path fill="#1d2943" d="M28.59 3.698c-.254-.147-.607-.127-.988.098L7.009 15.682c-.773.45-1.39 1.516-1.38 2.397l.079 30.337c0 .44.156.753.41.9L3.36 47.71c-.254-.147-.401-.46-.41-.9l-.08-30.336c-.009-.871.607-1.947 1.38-2.397L24.843 2.192c.382-.225.734-.245.988-.098l2.759 1.604z"/><path fill="#4c5c75" d="M27.6 3.795c.769-.444 1.39-.083 1.392.792l.086 30.338c.002.883-.614 1.958-1.382 2.401L7.102 49.216c-.768.443-1.388.082-1.39-.8l-.087-30.338c-.002-.876.614-1.95 1.382-2.394l20.594-11.89z"/><path fill="#fff" d="M7.582 18.072c.005-.19.24-.594.405-.694L26.056 6.945a.659.659 0 0 1 .988.569l.077 27.417c-.003.192-.238.6-.404.7L8.647 46.065a.659.659 0 0 1-.987-.568l-.078-27.424z"/><path fill="#f45170" d="m12.162 18.924.011 3.786-3.289 1.899-.011-3.786z"/><path fill="#57b3fe" d="m12.181 25.506.011 3.785-3.29 1.899-.01-3.785z"/><path fill="#78e75a" d="m12.2 32.093.01 3.78-3.289 1.899-.011-3.78z"/><path fill="#febc1f" d="m12.218 38.675.011 3.786L8.94 44.36l-.011-3.786z"/><path fill="#dedffb" d="m22.258 15.54.003.948-8.156 4.709-.003-.948zm3.53 9.106.002.948-11.653 6.728-.003-.948zm-3.511-2.524.003.947-8.156 4.709-.003-.948zm3.492-4.058.003.948-11.654 6.728-.003-.947zm-.019-6.581.003.948-11.654 6.728-.002-.948zm-3.454 17.22.002.948-8.156 4.709-.002-.948zm3.51 2.525.003.947-11.654 6.729-.002-.948zm-3.492 4.057.003.948-8.156 4.709-.003-.948z"/><path fill="#bf7d5a" d="m49.13 38.45-9.03 5.21-7.9-4.59-.03-9.57 3.26-1.88 1.12-.65.3-.17 1.12-.65 3.23-1.86 7.9 4.59z"/><path fill="#aa6256" d="m32.172 29.503 7.896 4.589.029 9.567-7.895-4.588z"/><path fill="#dba660" d="m49.097 28.878-9.029 5.214-7.896-4.589 9.03-5.213z"/><path fill="#bf7d5a" d="m49.097 28.878.03 9.568-9.03 5.213-.029-9.567z"/><path fill="#f3f1fc" d="m35.429 27.622 2.545-1.469 7.896 4.588-2.545 1.47z"/><path fill="#dedffb" d="M43.325 32.211v3.175l1.272-2.016 1.273.527v-3.156z"/><path fill="#e9e7fc" d="m36.551 26.975.301-.174 7.895 4.588-.3.174z"/><path fill="#4c5c75" d="m42.219 41.612.001.263-1.56.901-.001-.264zm-1.206-.874.342.324-.235.135.003.887-.218.126-.003-.887-.229.133zm.844-.487.342.323-.229.133.003.886-.218.126-.003-.887-.235.136zm1.504-.174c0-.032-.01-.042-.043-.032-.021.022-.043.054-.043.086v.215l-.612.354c0-.375.247-.837.57-1.063v-.054c0-.053.031-.107.074-.14.043-.02.086 0 .086.054v.054a.39.39 0 0 1 .376-.01c.118.064.194.203.194.418l-.602.344v-.226z"/><path fill="#4c5c75" d="M43.361 40.077v.226l-.086.043v-.215c0-.032.022-.064.043-.086.032-.01.043 0 .043.032z"/><path fill="#4c5c75" d="M43.372 40.98a.47.47 0 0 1-.215.365c-.118.064-.215.01-.215-.118 0-.032.022-.065.043-.086.022-.01.043 0 .043.032 0 .075.054.107.129.065.064-.033.118-.13.118-.205v-.902c0-.032.022-.064.043-.086.032-.01.043 0 .043.032v.226l.01.677z"/><path fill="#febc1f" d="M38.14 44.79 29.12 50l-7.9-4.59-.03-9.57 3.26-1.88 1.12-.65.3-.17 1.12-.65 3.23-1.86 7.9 4.59z"/><path fill="#f9a83d" d="m21.19 35.844 7.896 4.588.029 9.568-7.895-4.588z"/><path fill="#ffd06c" d="m38.115 35.219-9.029 5.213-7.896-4.588 9.03-5.214z"/><path fill="#febc1f" d="m38.115 35.219.03 9.567L29.115 50l-.029-9.568z"/><path fill="#f3f1fc" d="m24.448 33.963 2.544-1.469 7.896 4.588-2.545 1.469z"/><path fill="#dedffb" d="M32.343 38.551v3.176l1.272-2.016 1.273.527v-3.156z"/><path fill="#e9e7fc" d="m25.57 33.315.3-.174 7.896 4.589-.301.173z"/><path fill="#4c5c75" d="m31.237 47.952.001.264-1.56.9-.001-.263zm-1.206-.873.342.323-.235.136.003.886-.218.126-.003-.886-.229.132zm.844-.488.343.324-.23.132.003.887-.218.125-.003-.886-.235.135zm1.505-.173c0-.032-.011-.043-.044-.032-.021.021-.043.053-.043.086v.214l-.612.355c0-.376.247-.838.57-1.064v-.053c0-.054.032-.108.075-.14.043-.021.085 0 .085.054v.054a.39.39 0 0 1 .376-.011c.119.064.194.204.194.419l-.602.343v-.225z"/><path fill="#4c5c75" d="M32.38 46.418v.225l-.087.043v-.214c0-.033.022-.065.043-.086.033-.011.043 0 .043.032z"/><path fill="#4c5c75" d="M32.39 47.32a.47.47 0 0 1-.215.365c-.118.065-.215.011-.215-.118 0-.032.022-.064.043-.086.022-.01.043 0 .043.032 0 .076.054.108.13.065.064-.032.117-.129.117-.204v-.902c0-.033.022-.065.043-.086.033-.011.043 0 .043.032v.225l.011.677z"/><path fill="#f9a83d" d="m42.77 31.68-9.03 5.22-7.9-4.59-.03-9.57 3.26-1.88 1.12-.65.3-.17 1.12-.65 3.23-1.86 7.9 4.58z"/><path fill="#f9a83d" d="m25.812 22.74 7.895 4.588.029 9.568-7.895-4.588z"/><path fill="#ffd06c" d="m42.737 22.115-9.03 5.213-7.895-4.588 9.029-5.213z"/><path fill="#febc1f" d="m42.737 22.115.029 9.568-9.03 5.213-.029-9.568z"/><path fill="#f3f1fc" d="m29.069 20.859 2.545-1.469 7.895 4.588-2.545 1.469z"/><path fill="#dedffb" d="M36.964 25.447v3.176l1.272-2.016 1.273.527v-3.156z"/><path fill="#e9e7fc" d="m30.191 20.211.301-.173 7.895 4.588-.301.174z"/><path fill="#4c5c75" d="M35.859 34.848v.264l-1.56.901-.001-.264zm-1.207-.873.342.323-.234.136.002.887-.218.125-.002-.886-.23.132zm.844-.488.343.324-.229.132.002.887-.218.126-.003-.887-.234.136zM37 33.314c0-.032-.01-.043-.042-.032-.022.021-.043.054-.043.086v.215l-.613.354c0-.376.247-.838.57-1.063v-.054c0-.054.032-.107.075-.14.043-.021.086 0 .086.054v.054a.39.39 0 0 1 .376-.01c.118.064.193.203.193.418L37 33.54v-.226z"/><path fill="#4c5c75" d="M37 33.314v.226l-.085.043v-.215c0-.032.021-.065.043-.086.032-.01.042 0 .042.032z"/><path fill="#4c5c75" d="M37.011 34.216a.47.47 0 0 1-.215.366c-.118.064-.214.01-.214-.119 0-.032.021-.064.043-.085.021-.011.042 0 .042.032 0 .075.054.107.13.064.064-.032.118-.129.118-.204v-.902c0-.032.021-.065.043-.086.032-.01.042 0 .042.032v.226l.011.676z"/><path fill="#febc1f" d="M24.26 6.57c0-.28-.1-.46-.26-.55l-1.18-.69c-.16-.1-.37-.08-.61.06l-2.38 1.37c-.1-.15-.22-.27-.36-.35l-1.2-.7c-.39-.24-.94-.2-1.54.15-1.22.69-2.2 2.44-2.2 3.87v.08l-3.25 1.88c-.48.29-.85.93-.85 1.47l.01 3.86 1.21.7 12.62-7.29-.01-3.86zm-7.31 3.4c-.04.03-.08.04-.12.06-.01-.06-.02-.12-.02-.19 0-.75.52-1.65 1.15-2.01.03-.03.07-.04.1-.05.01.06.03.1.03.16 0 .75-.5 1.67-1.14 2.03z"/><path fill="#f9a83d" d="M24.011 6.03c-.155-.096-.37-.084-.597.06l-3.265 1.876-1.205-.699 3.264-1.877c.24-.144.455-.156.61-.06l1.193.7zm-4.896 2.477c0 .752-.518 1.671-1.153 2.034-.31.181-.582.194-.803.077l-1.008-.565c.208.116.493.103.803-.078.635-.363 1.14-1.282 1.14-2.033 0-.376-.13-.635-.337-.764l1.008.565c.22.13.35.389.35.764z"/><path fill="#ffd06c" d="M23.411 6.084c.466-.27.85-.051.85.484l.012 3.86-12.627 7.29-.011-3.86c-.002-.535.363-1.185.844-1.463l3.252-1.877v-.088c-.004-1.43.985-3.178 2.199-3.88 1.222-.704 2.21-.097 2.214 1.332v.088l3.267-1.886zm-5.444 4.459c.636-.368 1.147-1.281 1.145-2.032-.002-.75-.516-1.053-1.153-.686-.629.363-1.148 1.262-1.146 2.013.003.75.525 1.067 1.154.705z"/><path fill="#febc1f" d="M17.932 7.197c.916-.528 1.667-.083 1.67.996.003 1.096-.743 2.406-1.659 2.934-.916.53-1.667.084-1.67-1.012-.003-1.08.743-2.389 1.659-2.918zm.035 3.343c.636-.368 1.147-1.281 1.145-2.032s-.516-1.053-1.153-.685c-.629.362-1.148 1.262-1.146 2.012.003.75.525 1.068 1.154.705z"/><path fill="#f9a83d" d="M11.28 11.691c-.479.287-.85.933-.85 1.47l.012 3.863 1.206.7-.012-3.863c0-.538.359-1.184.849-1.47l3.245-1.874-1.198-.703-3.253 1.877z"/><path fill="#febc1f" d="M18.274 5.713c-.394-.24-.944-.204-1.542.143-1.22.694-2.2 2.44-2.2 3.874v.084l1.198.703.007-.004v-.083c-.012-1.435.98-3.181 2.188-3.875.61-.346 1.148-.382 1.555-.143l-1.206-.7z"/><path fill="#fff" d="m11.713 20.43-1.47 2.55c-.04.07-.09.12-.15.16-.05.024-.122.048-.16.01l-.58-.33c-.121-.08-.08-.243-.01-.36.069-.121.216-.24.31-.17l.42.24 1.32-2.28c.05-.1.185-.233.31-.17.1.033.074.233.01.35zm.019 6.557-1.47 2.55c-.1.175-.258.222-.31.17l-.58-.33c-.121-.08-.08-.243-.01-.36.068-.121.216-.24.31-.17l.42.24 1.32-2.28c.05-.1.182-.234.31-.17.1.033.074.233.01.35zm.018 6.62-1.47 2.55c-.11.193-.266.214-.31.17l-.58-.33c-.12-.08-.08-.243-.01-.36.07-.121.217-.24.31-.17l.42.24 1.32-2.28c.05-.1.185-.233.31-.17.1.033.075.233.01.35zm.019 6.575-1.47 2.55c-.1.175-.258.222-.31.17l-.58-.33c-.121-.08-.08-.243-.01-.36.069-.121.216-.24.31-.17l.42.24 1.32-2.28c.05-.1.185-.233.31-.17.1.033.074.234.01.35z"/></svg>