<svg xmlns="http://www.w3.org/2000/svg" shape-rendering="geometricPrecision" text-rendering="geometricPrecision" viewBox="0 0 512 512"><rect width="177.444" height="229.829" fill="#aeaed6" rx="10.302" ry="10.302" transform="translate(231.936 43.641)"/><rect width="166.944" height="229.829" fill="#d1d1f0" rx="10.302" ry="10.302" transform="translate(228.936 43.641)"/><rect width="123.794" height="159.045" fill="#fff" rx="7.187" ry="7.187" transform="translate(251.76 79.034)"/><rect width="43.785" height="164.939" fill="#d9c5bf" rx="0" ry="0" transform="translate(293.766 310.166)"/><path fill="#836d66" fill-rule="evenodd" d="M383.421 491.113V501H269.895v-9.887c0-8.817 7.191-16.008 16.008-16.008h81.511c8.816 0 16.008 7.192 16.008 16.008h-.001Z"/><path fill="#9b827a" fill-rule="evenodd" d="M368.171 501H265.895v-9.887c0-8.817 7.191-16.008 16.008-16.008h70.26c8.816 0 16.008 7.192 16.008 16.008V501Z"/><path fill="#7986bf" fill-rule="evenodd" d="M248.485 273.471H390.83v18.348c0 10.091-8.256 18.347-18.347 18.347H266.832c-10.091 0-18.347-8.256-18.347-18.347v-18.348Z"/><path fill="#909cd1" fill-rule="evenodd" d="M248.485 273.471H378.08v18.348c0 10.091-8.256 18.347-18.347 18.347h-92.901c-10.091 0-18.347-8.256-18.347-18.347v-18.348Z"/><path fill="#4eb1fc" fill-rule="evenodd" d="M312.58 223.005a7 7 0 1 1 0-14h8.155a7 7 0 1 1 0 14h-8.155Z"/><path fill="#43f043" fill-rule="evenodd" d="M344.606 223.005a7 7 0 1 1 0-14h8.155a7 7 0 1 1 0 14h-8.155Z"/><path fill="#ff5471" fill-rule="evenodd" d="M279.554 223.005a7 7 0 1 1 0-14h8.155a7 7 0 1 1 0 14h-8.155Z"/><circle r="49.667" fill="#2dd62d" transform="rotate(-45 265.397 -433.597)"/><path fill="#43f043" fill-rule="evenodd" d="M377.895 110.037c-24.872-2.709-44.229-23.777-44.229-49.37s19.358-46.661 44.229-49.37c24.872 2.709 44.23 23.777 44.23 49.37s-19.358 46.661-44.23 49.37Z"/><path fill="#fff" fill-rule="evenodd" d="M351.948 60.179a6.97 6.97 0 0 1 12.086-6.946l6.324 10.954 23.369-23.369a7 7 0 0 1 9.898 9.898l-29.797 29.797c-3.241 3.239-8.713 2.49-10.992-1.476l-10.888-18.859v.001Z"/><path fill="#909cd1" fill-rule="evenodd" d="M278.97 119.148a7 7 0 1 1 0-14h33.75a7 7 0 1 1 0 14h-33.75Zm0 23.625a7 7 0 1 1 0-14h69.375a7 7 0 1 1 0 14H278.97Z"/><ellipse fill="#d9c5bf" rx="41.087" ry="43.434" transform="translate(134.866 82.683)"/><path fill="#f0e3df" fill-rule="evenodd" d="M123.747 40.578C105.949 45.344 92.78 62.387 92.78 82.683s13.169 37.339 30.967 42.105c17.797-4.766 30.967-21.809 30.967-42.105s-13.169-37.339-30.967-42.105Z"/><path fill="#2a92fa" fill-rule="evenodd" d="M95.119 274.525h85.495V168.864c0-23.512-19.236-42.747-42.747-42.747s-42.748 19.236-42.748 42.747v105.661Z"/><path fill="#4eb1fc" fill-rule="evenodd" d="M94.119 274.525h66.22v-105.66c0-20.2-14.199-37.244-33.11-41.644-18.91 4.4-33.11 21.444-33.11 41.644v105.66Z"/><path fill="#c2a9a1" fill-rule="evenodd" d="M120.819 381.959 99.91 329.482c-3.32-8.332-4.791-16.002-4.791-24.971v-29.986h85.495v180.457c0 5.848 3.404 10.835 8.85 12.966l19.575 7.661c11.893 4.655 9.186 24.426-4.294 24.426h-59.417a12.809 12.809 0 0 1-12.776-11.447l-11.732-106.63-.001.001Z"/><path fill="#d9c5bf" fill-rule="evenodd" d="M119.819 381.959 98.91 329.482c-3.32-8.332-4.791-16.002-4.791-24.971v-29.986h66.22v180.457c0 5.848 3.404 10.835 8.85 12.966l19.575 7.661c11.893 4.655 9.186 24.426-4.294 24.426h-40.142a12.809 12.809 0 0 1-12.776-11.447l-11.732-106.63-.001.001Z"/><path fill="#6e5a54" fill-rule="evenodd" d="M180.613 454.982c0 5.848 3.404 10.835 8.85 12.966l19.575 7.661c11.893 4.655 9.186 24.426-4.294 24.426h-59.417a12.809 12.809 0 0 1-12.776-11.447l-3.698-33.606h51.76Z"/><path fill="#836d66" fill-rule="evenodd" d="M160.338 454.982c0 5.848 3.404 10.835 8.85 12.966l19.575 7.661c11.893 4.655 9.186 24.426-4.294 24.426h-40.142a12.809 12.809 0 0 1-12.776-11.447l-3.698-33.606h32.485Z"/><path fill="#d9c5bf" fill-rule="evenodd" d="M124.906 170.058c-2.537 9.469 3.134 19.291 12.602 21.828l54.48 14.598c5.999 1.607 11.514 1.608 17.513 0l73.254-19.628c23.73-6.358 14.947-34.032-3.883-30.489l-78.127 15.562-54.012-14.473c-9.468-2.537-19.29 3.134-21.827 12.602Z"/><path fill="#e6d6d1" fill-rule="evenodd" d="M124.906 170.058a17.777 17.777 0 0 0-.528 2.945c2.264 4.097 6.118 7.31 10.969 8.61l54.481 14.598c5.999 1.607 11.514 1.608 17.513 0l73.253-19.628c8.995-2.41 13.315-7.883 14.19-13.557-3.012-4.817-8.73-8.01-15.912-6.659l-78.127 15.562-54.013-14.473c-9.468-2.537-19.29 3.134-21.827 12.602h.001Z"/><rect width="10.116" height="164.939" fill="#c2a9a1" rx="0" ry="0" transform="translate(335.435 310.166)"/></svg>