<svg xmlns="http://www.w3.org/2000/svg" width="64" height="64" viewBox="0 0 256 256"><path fill="#66edce" stroke-miterlimit="10" d="M31 11c-11.027 0-20 8.973-20 20s8.973 20 20 20a19.86 19.86 0 0 0 10.79-3.186l12.937 12.938a4.26 4.26 0 1 0 6.025-6.025L47.814 41.789A19.86 19.86 0 0 0 51 31c0-11.027-8.973-20-20-20zm0 8c6.616 0 12 5.384 12 12s-5.384 12-12 12-12-5.384-12-12 5.384-12 12-12z" font-family="none" font-size="none" font-weight="none" style="mix-blend-mode:normal" text-anchor="none" transform="scale(3.55556)"/></svg>