<svg xmlns="http://www.w3.org/2000/svg" viewBox="0 0 24 24"><g fill="none" fill-rule="evenodd"><path fill="#FBD68A" fill-rule="nonzero" d="M0 9.931V24h24V9.931L12 1z"/><path fill="#FAC14C" fill-rule="nonzero" d="M0 10v14h24V10l-12 9.059z"/><path fill="#F8A700" fill-rule="nonzero" d="M0 24h24l-12-9z"/><g transform="rotate(-25 12.997 -8.255)"><path fill="#0AA9DD" d="M2 8h3l.877 3.51c.068.27-.093.49-.372.49h-2.01a.67.67 0 0 1-.618-.49L2 8z"/><path fill="#F44D61" d="M0 6.196A.81.81 0 0 0 .804 7H3V4H.804A.81.81 0 0 0 0 4.804v1.392z"/><path fill="#3BBAE4" d="M1 7.197c0 .443.355.803.81.803H5V3H1.81c-.448 0-.81.36-.81.803v3.394z"/><circle cx="9.5" cy="5.5" r="2.5" fill="#555"/><path fill="#F44D61" d="M13 5.5c0 .276.214.5.505.5h.99A.508.508 0 0 0 15 5.5c0-.276-.214-.5-.505-.5h-.99a.508.508 0 0 0-.505.5zm-.813-2.155a.495.495 0 0 1 .246-.666l.898-.419A.508.508 0 0 1 14 2.5a.495.495 0 0 1-.246.666l-.898.42a.508.508 0 0 1-.669-.24zm0 4.31a.495.495 0 0 0 .246.666l.898.419A.508.508 0 0 0 14 8.5a.495.495 0 0 0-.246-.666l-.898-.42a.508.508 0 0 0-.669.24z"/><path fill="#EDEDED" d="M5 8.009c0 .271.209.567.469.662L10.5 10.5V.5L5.469 2.33A.767.767 0 0 0 5 2.99v5.018z"/><path fill="#0AA9DD" d="M10 10.499c0 .277.232.501.5.501.276 0 .5-.23.5-.501V.5a.506.506 0 0 0-.5-.5c-.276 0-.5.23-.5.501V10.5z"/></g></g></svg>