<svg xmlns="http://www.w3.org/2000/svg" viewBox="0 0 64 64"><path fill="#577399" d="M61 7v26c0 2.21-1.79 4-4 4h-7L38.24 25.24a4.246 4.246 0 0 0-6 0 4.246 4.246 0 0 0 0 6L38 37H7c-2.21 0-4-1.79-4-4V7c0-2.21 1.79-4 4-4h50c2.21 0 4 1.79 4 4zm-5 12v-4c0-1.1-.9-2-2-2h-8c-1.1 0-2 .9-2 2v4c0 1.1.9 2 2 2h8c1.1 0 2-.9 2-2zm-30 4V12l-3 3-6-8-6 8-3-3v11a9 9 0 0 0 18 0z"/><path fill="#bdd5ea" d="M27 56h29v5H27z"/><path fill="#f3f3fb" d="m38 37-5.76-5.76a4.246 4.246 0 0 1 0-6 4.246 4.246 0 0 1 6 0L50 37h6v19H27v-5l-5-5v-9h16z"/><path fill="#ffbd52" d="M56 17v2c0 1.1-.9 2-2 2h-2v-4h4zm0-2v2h-4v-4h2c1.1 0 2 .9 2 2zM48 17h4v4h-4zM48 13h4v4h-4zM48 17v4h-2c-1.1 0-2-.9-2-2v-2h4zm0-4v4h-4v-2c0-1.1.9-2 2-2h2z"/><path fill="#f3f3fb" d="M26 19v4a9 9 0 0 1-18 0v-4h18z"/><path fill="#ffbd52" d="M26 12v7H8v-7l3 3 6-8 6 8z"/><path fill="#313b45" d="M57 2H7C4.243 2 2 4.243 2 7v26c0 2.757 2.243 5 5 5h14v8c0 .265.105.52.293.707L26 51.414V61a1 1 0 0 0 1 1h29a1 1 0 0 0 1-1V38c2.757 0 5-2.243 5-5V7c0-2.757-2.243-5-5-5zM23 45.586V38h14v6c0 .265.105.52.293.707l4 4 1.414-1.414L39 43.586V37a.997.997 0 0 0-.293-.707l-5.757-5.757a3.22 3.22 0 0 1-.95-2.293A3.247 3.247 0 0 1 35.243 25c.866 0 1.68.337 2.293.95l11.757 11.757A.997.997 0 0 0 50 38h5v17H28v-4a.997.997 0 0 0-.293-.707L23 45.586zM28 60v-3h27v3H28zm32-27c0 1.654-1.346 3-3 3h-6.586L38.95 24.536A5.207 5.207 0 0 0 35.243 23 5.249 5.249 0 0 0 30 28.243c0 1.4.545 2.717 1.536 3.707l4.05 4.05H7c-1.654 0-3-1.346-3-3V7c0-1.654 1.346-3 3-3h50c1.654 0 3 1.346 3 3v26z"/><path fill="#313b45" d="M26.383 11.076a.998.998 0 0 0-1.09.217l-2.185 2.185L17.8 6.4c-.377-.504-1.223-.504-1.6 0l-5.309 7.078-2.185-2.185A.999.999 0 0 0 7 12v11c0 5.514 4.486 10 10 10s10-4.486 10-10V12c0-.404-.244-.769-.617-.924zm-16.09 4.631c.205.205.485.306.778.291.289-.021.555-.166.729-.397L17 8.667l5.2 6.934a.998.998 0 0 0 1.507.106L25 14.414V18H9v-3.586l1.293 1.293zM25 23c0 4.411-3.589 8-8 8s-8-3.589-8-8v-3h16v3z"/><path fill="#313b45" d="M16 14h2v2h-2zM17 29c3.309 0 6-2.691 6-6h-2c0 2.206-1.794 4-4 4s-4-1.794-4-4h-2c0 3.309 2.691 6 6 6zm37-17h-8c-1.654 0-3 1.346-3 3v4c0 1.654 1.346 3 3 3h8c1.654 0 3-1.346 3-3v-4c0-1.654-1.346-3-3-3zm1 3v1h-2v-2h1c.551 0 1 .449 1 1zm-6 1v-2h2v2h-2zm2 2v2h-2v-2h2zm-5-4h1v2h-2v-1c0-.551.449-1 1-1zm-1 5v-1h2v2h-1c-.551 0-1-.449-1-1zm9 1h-1v-2h2v1c0 .551-.449 1-1 1zM53 24h2v2h-2zM49 24h2v2h-2zM45 24h2v2h-2z"/></svg>