<svg xmlns="http://www.w3.org/2000/svg" viewBox="0 0 100 100"><path fill="#DADEE0" d="M83.999 83.5c0 3.299-2.701 5.999-6 5.999h-45c-3.299 0-6-2.7-6-5.999v-56c0-3.301 2.701-6 6-6h45.002c3.3 0 6 2.7 6 6l-.002 56"/><path fill="#1BB7EA" d="M26.999 27.5c0-3.301 2.701-6 6-6h40.002v-5c0-3.3-2.7-6-6-6H21.999c-3.299 0-6 2.7-6 6v56c0 3.299 2.701 5.999 6 5.999h5V27.5z"/><path fill="#A4ABB1" d="M41.001 45.992h29.998a1.5 1.5 0 0 0 0-3H41.001a1.5 1.5 0 1 0 0 3m0-10h29.998a1.5 1.5 0 0 0 0-3H41.001a1.5 1.5 0 1 0 0 3m0 20h29.998a1.5 1.5 0 0 0 0-3H41.001a1.5 1.5 0 1 0 0 3"/><path fill="#1BB7EA" d="M53.769 72.81c.145-.583.23-1.189.23-1.817 0-4.143-3.358-7.5-7.5-7.5s-7.5 3.357-7.5 7.5 3.358 7.5 7.5 7.5c.628 0 1.234-.085 1.816-.231l-1.816-7.269 7.27 1.817z"/><path fill="#1F4254" d="m53.769 72.81-7.27-1.817 1.816 7.269a7.505 7.505 0 0 0 5.454-5.452z"/><path fill="#C7CED2" d="M73.071 67.447c.264.27.428.638.428 1.045v9a1.5 1.5 0 0 1-3 0v-5.618l-7.404-7.405v.004c.249.268.404.624.404 1.019v12a1.5 1.5 0 0 1-3 0v-3.039l-8.156-8.156a7.464 7.464 0 0 1 1.656 4.695c0 .628-.086 1.234-.23 1.817a7.5 7.5 0 0 1-5.453 5.452 7.443 7.443 0 0 1-1.816.231 7.474 7.474 0 0 1-4.76-1.704L54.45 89.5h23.549c3.299 0 6-2.7 6-5.999v-5.126L73.071 67.447z"/><path fill="#1F4254" d="M65.499 71.493v6a1.5 1.5 0 0 0 3 0v-6a1.5 1.5 0 1 0-3 0m-5-6v12a1.5 1.5 0 0 0 3 0v-12a1.5 1.5 0 1 0-3 0m10 3v9a1.5 1.5 0 0 0 3 0v-9a1.5 1.5 0 1 0-3 0"/></svg>