<svg xmlns="http://www.w3.org/2000/svg" viewBox="0 0 64 64"><path fill="#66bb6a" d="M3 38.359h10.254v19.392H3z"/><path fill="#42a047" d="M13.254 40.36v-2H3V57.75h2v-9.137a8.254 8.254 0 0 1 8.254-8.255Z"/><path fill="#fecc81" d="M13.254 54.807C14.371 55.517 35.387 61 35.387 61L58.34 50.778a4.483 4.483 0 0 0-3.087-8.396l-16.718 4.912a6.145 6.145 0 0 0-4.375-5.885l-10.144-3.05-10.762 3.655v12.793Z"/><path fill="#faa629" d="m60.34 48.778-15.13 6.738a24.278 24.278 0 0 1-16.168 1.274l-2.478-.668a15.318 15.318 0 0 1-11.31-14.787s-2 .68-2 .68v12.792C14.371 55.517 35.387 61 35.387 61L58.34 50.778a4.435 4.435 0 0 0 2.168-2.097c-.059.03-.108.07-.168.097Z"/><path fill="#faa629" d="M40.97 46.57c-1.47 1.86-4.27 4.4-8.51 4.4-1.2 0-2.5-.2-3.92-.67-.53-.18-.81-.74-.64-1.27.18-.52.74-.8 1.27-.63 4.49 1.49 7.52-.22 9.3-1.97.04.28.06.57.06.86l2.44-.72Z"/><path fill="#ffcb29" d="M9.086 41.32H7.168a1 1 0 1 0 0 2h1.918a1 1 0 1 0 0-2zM19.815 4.123l-.775 2.384a1.625 1.625 0 0 1-1.545 1.123h-2.507c-1.574 0-2.228 2.014-.955 2.939l2.028 1.473c.57.414.808 1.147.59 1.817l-.774 2.384c-.487 1.497 1.226 2.742 2.5 1.817l2.028-1.474a1.625 1.625 0 0 1 1.91 0l2.028 1.474c1.274.925 2.987-.32 2.5-1.817l-.774-2.384c-.218-.67.02-1.403.59-1.817l2.028-1.473c1.273-.925.62-2.94-.955-2.94h-2.507a1.625 1.625 0 0 1-1.545-1.122l-.775-2.384c-.486-1.497-2.604-1.497-3.09 0z"/><path fill="#fcb316" d="m24.34 18.06-2.03-1.47a1.59 1.59 0 0 0-1.9 0l-2.03 1.47c-1.28.92-2.99-.32-2.5-1.82l.77-2.38c.22-.67-.02-1.4-.59-1.82l-2.03-1.47c-1.27-.93-.62-2.94.96-2.94h2.51c.08 0 .15-.01.23-.02 1.57 2.16 4.14 4.54 8.27 5.89.01.12.03.24.07.36l.77 2.38c.49 1.5-1.22 2.74-2.5 1.82Z"/><path fill="#ffcb29" d="m9.456 19.57-.775 2.384a1.625 1.625 0 0 1-1.545 1.123H4.628c-1.573 0-2.228 2.014-.954 2.939l2.028 1.473c.57.414.808 1.147.59 1.817l-.775 2.384c-.486 1.497 1.227 2.742 2.5 1.817l2.029-1.474a1.625 1.625 0 0 1 1.91 0l2.028 1.474c1.273.925 2.986-.32 2.5-1.817l-.775-2.384c-.217-.67.021-1.403.59-1.817l2.029-1.473c1.273-.925.619-2.94-.955-2.94h-2.507a1.625 1.625 0 0 1-1.545-1.122l-.775-2.384c-.487-1.497-2.604-1.497-3.09 0Z"/><path fill="#fcb316" d="m13.98 33.507-2.03-1.47a1.59 1.59 0 0 0-1.9 0l-2.03 1.47c-1.28.92-2.99-.32-2.5-1.82l.77-2.38c.22-.67-.02-1.4-.59-1.82l-2.03-1.47c-1.27-.93-.62-2.94.96-2.94h2.51c.08 0 .15-.01.23-.02 1.57 2.16 4.14 4.54 8.27 5.89.01.12.03.24.07.36l.77 2.38c.49 1.5-1.22 2.74-2.5 1.82Z"/><path fill="#ffcb29" d="m30.456 19.57-.775 2.384a1.625 1.625 0 0 1-1.545 1.123h-2.508c-1.573 0-2.228 2.014-.954 2.939l2.028 1.473c.57.414.808 1.147.59 1.817l-.775 2.384c-.486 1.497 1.227 2.742 2.5 1.817l2.029-1.474a1.625 1.625 0 0 1 1.91 0l2.028 1.474c1.273.925 2.986-.32 2.5-1.817l-.775-2.384c-.217-.67.021-1.403.59-1.817l2.029-1.473c1.273-.925.619-2.94-.955-2.94h-2.507a1.625 1.625 0 0 1-1.545-1.122l-.775-2.384c-.487-1.497-2.604-1.497-3.09 0Z"/><path fill="#fcb316" d="m34.98 33.507-2.03-1.47a1.59 1.59 0 0 0-1.9 0l-2.03 1.47c-1.28.92-2.99-.32-2.5-1.82l.77-2.38c.22-.67-.02-1.4-.59-1.82l-2.03-1.47c-1.27-.93-.62-2.94.96-2.94h2.51c.08 0 .15-.01.23-.02 1.57 2.16 4.14 4.54 8.27 5.89.01.12.03.24.07.36l.77 2.38c.49 1.5-1.22 2.74-2.5 1.82Z"/><path fill="#ffcb29" d="m51.456 19.57-.775 2.384a1.625 1.625 0 0 1-1.545 1.123h-2.508c-1.573 0-2.228 2.014-.954 2.939l2.028 1.473c.57.414.808 1.147.59 1.817l-.775 2.384c-.486 1.497 1.227 2.742 2.5 1.817l2.029-1.474a1.625 1.625 0 0 1 1.91 0l2.028 1.474c1.273.925 2.986-.32 2.5-1.817l-.775-2.384c-.217-.67.021-1.403.59-1.817l2.029-1.473c1.273-.925.619-2.94-.955-2.94h-2.507a1.625 1.625 0 0 1-1.545-1.122l-.775-2.384c-.487-1.497-2.604-1.497-3.09 0Z"/><path fill="#fcb316" d="m55.98 33.507-2.03-1.47a1.59 1.59 0 0 0-1.9 0l-2.03 1.47c-1.28.92-2.99-.32-2.5-1.82l.77-2.38c.22-.67-.02-1.4-.59-1.82l-2.03-1.47c-1.27-.93-.62-2.94.96-2.94h2.51c.08 0 .15-.01.23-.02 1.57 2.16 4.14 4.54 8.27 5.89.01.12.03.24.07.36l.77 2.38c.49 1.5-1.22 2.74-2.5 1.82Z"/><path fill="#ffcb29" d="m41.096 4.123-.775 2.384a1.625 1.625 0 0 1-1.545 1.123h-2.508c-1.573 0-2.228 2.014-.955 2.939l2.029 1.473c.57.414.808 1.147.59 1.817l-.775 2.384c-.486 1.497 1.227 2.742 2.5 1.817l2.029-1.474a1.625 1.625 0 0 1 1.91 0l2.028 1.474c1.273.925 2.986-.32 2.5-1.817l-.775-2.384c-.217-.67.021-1.403.59-1.817l2.029-1.473c1.273-.925.619-2.94-.955-2.94h-2.507a1.625 1.625 0 0 1-1.545-1.122l-.775-2.384c-.487-1.497-2.604-1.497-3.09 0Z"/><path fill="#fcb316" d="m45.62 18.06-2.03-1.47a1.59 1.59 0 0 0-1.9 0l-2.03 1.47c-1.28.92-2.99-.32-2.5-1.82l.77-2.38c.22-.67-.02-1.4-.59-1.82l-2.03-1.47c-1.27-.93-.62-2.94.96-2.94h2.51c.08 0 .15-.01.23-.02 1.57 2.16 4.14 4.54 8.27 5.89.01.12.03.24.07.36l.77 2.38c.49 1.5-1.22 2.74-2.5 1.82Z"/></svg>