<svg xmlns="http://www.w3.org/2000/svg" viewBox="0 0 488 496"><path fill="#5d5560" d="M314.38 374.34v65.51c-46.92 30.106-93.84 30.106-140.76 0v-65.51c46.92-29.152 93.84-29.152 140.76 0z"/><path fill="#655f68" d="M408.23 439.85V496H79.77v-56.15H314.38zM488 318.19v13.57c0 23.52-19.06 42.58-42.58 42.58H42.58C19.06 374.34 0 355.28 0 331.76v-13.57l281.54-51.73L488 318.19z"/><path fill="#e7f2f1" d="M488 42.58v275.61H281.54c-19.427-108.815-20.495-215.029 0-318.19h163.88C468.94 0 488 19.06 488 42.58z"/><path fill="#e15c63" d="M455.15 42.11v79.55H314.38l37.54-42.11c4.7 6.24 9.39 12.48 14.08 18.71 9.38-9.35 18.77-18.71 28.15-28.07 6.26 6.24 12.52 12.48 18.77 18.72 14.08-15.6 28.16-31.2 42.23-46.8z"/><path fill="#1ea6bc" d="M281.54 0v318.19H0V42.58C0 19.06 19.06 0 42.58 0h238.96z"/><path fill="#1ea6bc" d="M140.77 135.7c12.96 0 23.46 10.47 23.46 23.39 0 12.93-10.5 23.4-23.46 23.4s-23.46-10.47-23.46-23.4c0-12.92 10.5-23.39 23.46-23.39z"/><path fill="#ffc05a" d="M244 140.38v37.43h-30.52a74.017 74.017 0 0 1-8.04 19.3l21.6 21.54-26.55 26.47-21.59-21.54c-5.98 3.52-12.47 6.26-19.36 8.02v30.44H122V231.6c-6.89-1.76-13.38-4.5-19.36-8.02l-21.59 21.54-26.55-26.47 21.6-21.54a74.017 74.017 0 0 1-8.04-19.3H37.54v-37.43h30.52a74.226 74.226 0 0 1 8.04-19.31L54.5 99.54l26.55-26.47 21.59 21.53c5.98-3.52 12.47-6.25 19.36-8.01V56.15h37.54v30.44c6.89 1.76 13.38 4.49 19.36 8.01l21.59-21.53 26.55 26.47-21.6 21.53a74.226 74.226 0 0 1 8.04 19.31H244zm-79.77 18.71c0-12.92-10.5-23.39-23.46-23.39s-23.46 10.47-23.46 23.39c0 12.93 10.5 23.4 23.46 23.4s23.46-10.47 23.46-23.4z"/><path fill="#d14b62" d="M455.15 42.11v79.55h-58.6a594.91 594.91 0 0 0 20.62-37.46c12.66-14.03 25.33-28.06 37.98-42.09z"/><path fill="#d6eae8" d="M372.16 159.09c9-12.69 17.11-25.25 24.39-37.43h58.6V42.11c-12.65 14.03-25.32 28.06-37.98 42.09C441.6 35.83 451.32.42 451.32.42V.41C472.05 3.28 488 21.06 488 42.58v275.61H281.54v-61.25c17.16-13.97 32.76-28.81 46.92-44.02 16.46-17.68 30.97-35.88 43.7-53.83z"/><path fill="#1498b7" d="M281.54 256.94v61.25H180.52c38.47-16.38 71.97-37.57 101.02-61.25z"/><path fill="#5d5560" d="M488 318.19v13.57c0 23.52-19.06 42.58-42.58 42.58H42.58c-16 0-29.93-8.82-37.2-21.86 67.42 0 125.43-13.11 175.14-34.29H488z"/><path fill="#524956" d="M173.62 374.34h140.76v32.76H173.62z"/><path fill="#e15c63" d="M441.08 163.09H328.46a4 4 0 0 1 0-8h112.62a4 4 0 0 1 0 8z"/><path fill="#5d5560" d="M384.77 289.43a4 4 0 0 1-4-4v-93.58a4 4 0 0 1 8 0v93.58a4 4 0 0 1-4 4z"/><path fill="#ffc05a" d="M398.85 270.72h-28.16a4 4 0 0 1 0-8h28.16a4 4 0 0 1 0 8z"/><path fill="#5d5560" d="M328.46 289.43a4 4 0 0 1-4-4v-93.58a4 4 0 0 1 8 0v93.58a4 4 0 0 1-4 4z"/><path fill="#ffc05a" d="M342.54 242.64h-28.16a4 4 0 0 1 0-8h28.16a4 4 0 0 1 0 8z"/><path fill="#5d5560" d="M441.08 289.43a4 4 0 0 1-4-4v-93.58a4 4 0 0 1 8 0v93.58a4 4 0 0 1-4 4z"/><path fill="#ffc05a" d="M455.15 214.57H427a4 4 0 0 1 0-8h28.15a4 4 0 0 1 0 8z"/></svg>