<svg xmlns="http://www.w3.org/2000/svg" shape-rendering="geometricPrecision" text-rendering="geometricPrecision" viewBox="0 0 139 139"><path fill="#d85b53" d="M69.5 0C31.116 0 0 31.116 0 69.5S31.116 139 69.5 139 139 107.884 139 69.5 107.884 0 69.5 0Zm-6.905 32.893a6.906 6.906 0 0 1 13.81 0v20.59a6.905 6.905 0 0 1-13.81 0v-20.59ZM69.5 104.82c-19.443 0-35.26-15.817-35.26-35.259 0-15.013 9.435-27.857 22.684-32.933v12.735c-6.742 4.212-11.25 11.68-11.25 20.2 0 13.135 10.689 23.825 23.826 23.825S93.325 82.7 93.325 69.562c0-8.518-4.509-15.986-11.25-20.2V36.629c13.247 5.076 22.683 17.921 22.683 32.933 0 19.442-15.817 35.259-35.258 35.259Z"/></svg>