<svg xmlns="http://www.w3.org/2000/svg" viewBox="0 0 64 64"><path fill="#8a8bc4" d="M64 32c0 17.62-14.23 31.91-31.84 32H32C14.33 64 0 49.67 0 32S14.33 0 32 0h.16C49.77.09 64 14.38 64 32z"/><path fill="#6267af" d="M32.16 0v64H32C14.33 64 0 49.67 0 32S14.33 0 32 0h.16z"/><circle cx="32" cy="32" r="24.38" fill="#efeeef"/><path fill="#e8e1e7" d="M50.04 15.61a24.27 24.27 0 0 0-16.39-6.34c-13.46 0-24.38 10.92-24.38 24.38 0 6.31 2.4 12.06 6.34 16.39C10.7 45.57 7.62 39.15 7.62 32 7.62 18.54 18.54 7.62 32 7.62c7.15 0 13.58 3.08 18.04 7.99z"/><path fill="#e8e1e7" d="M33.7 17.3h-2.29c-.33 0-.59-.27-.59-.59v-5.32c0-.33.27-.59.59-.59h2.29c.33 0 .59.27.59.59v5.32c0 .32-.26.59-.59.59zm-1.84 30.95h2.29c.33 0 .59.27.59.59v5.32c0 .33-.27.59-.59.59h-2.29c-.33 0-.59-.27-.59-.59v-5.32c0-.33.26-.59.59-.59z"/><path fill="#3a556a" d="M31.02 47.52h2.29c.33 0 .59.27.59.59v5.32c0 .33-.27.59-.59.59h-2.29c-.33 0-.59-.27-.59-.59v-5.32c-.01-.32.26-.59.59-.59zm1.97-31.04H30.7c-.33 0-.59-.27-.59-.59v-5.32c0-.33.27-.59.59-.59h2.29c.33 0 .59.27.59.59v5.32c0 .32-.26.59-.59.59z"/><path fill="#e8e1e7" d="M17.35 31.72v2.29c0 .33-.27.59-.59.59h-5.32c-.33 0-.59-.27-.59-.59v-2.29c0-.33.27-.59.59-.59h5.32c.32 0 .59.26.59.59zm29.4 2.2v-2.29c0-.33.27-.59.59-.59h5.32c.33 0 .59.27.59.59v2.29c0 .33-.27.59-.59.59h-5.32c-.32 0-.59-.27-.59-.59z"/><path fill="#3a556a" d="M16.48 30.85v2.29c0 .33-.27.59-.59.59h-5.32c-.33 0-.59-.27-.59-.59v-2.29c0-.33.27-.59.59-.59h5.32c.32 0 .59.27.59.59zm31.05 2.29v-2.29c0-.33.27-.59.59-.59h5.32c.33 0 .59.27.59.59v2.29c0 .33-.27.59-.59.59h-5.32a.579.579 0 0 1-.59-.59z"/><path fill="#e8e1e7" d="m19.27 38.83-.03-.05c-.43-.94-.02-2.05.92-2.49l15.33-7.05c.94-.43 2.05-.02 2.49.92l.02.05c.43.94.02 2.05-.92 2.49l-15.33 7.05c-.94.43-2.05.02-2.48-.92z"/><path fill="#1d1a1a" d="M37.05 35.62c-.38.53-1.11.65-1.64.28l-21-14.97c-.53-.38-.66-1.11-.28-1.64.38-.53 1.11-.65 1.64-.28l21 14.97c.53.38.66 1.11.28 1.64z"/><path fill="#e8e1e7" d="M36.59 36.24c-.38.53-1.11.65-1.64.28l-21-14.97c-.53-.38-.65-1.11-.28-1.64.38-.53 1.11-.65 1.64-.28l21 14.97c.53.37.66 1.11.28 1.64z"/><path fill="#4bc8f1" d="m18.85 39.09-.99-2.15a.724.724 0 0 1 .35-.96l17.43-8.01c.36-.17.79-.01.96.35l.99 2.15c.17.36.01.79-.35.96l-17.43 8.01c-.36.17-.79.02-.96-.35z"/><path fill="#f04844" d="M37.05 35.62c-.38.53-1.11.65-1.64.28l-21-14.97c-.53-.38-.66-1.11-.28-1.64.38-.53 1.11-.65 1.64-.28l21 14.97c.53.38.66 1.11.28 1.64z"/></svg>