<svg xmlns="http://www.w3.org/2000/svg" viewBox="0 0 64 64"><circle cx="31.651" cy="32.855" r="29" fill="#D4DDFF"/><circle cx="31.651" cy="32.855" r="21.922" fill="#47A9FB"/><circle cx="31.651" cy="25.421" r="8.314" fill="red"/><path fill="#3F456A" d="M16.075 47.693c-.05.32.059.646.292.872 3.948 3.845 9.343 6.212 15.284 6.212s11.336-2.367 15.284-6.212c.233-.226.342-.552.292-.872a13.055 13.055 0 0 0-12.9-11.04h-5.352a13.057 13.057 0 0 0-12.9 11.04z"/><path fill="#373C5B" d="M16.779 45.049a13.063 13.063 0 0 0-.704 2.645c-.05.32.059.646.292.872 3.948 3.845 9.343 6.212 15.284 6.212s11.336-2.367 15.284-6.212c.233-.226.342-.552.292-.872a13.146 13.146 0 0 0-.704-2.645c-3.908 3.615-9.134 5.822-14.872 5.822s-10.963-2.207-14.872-5.822z"/></svg>